<svg xmlns="http://www.w3.org/2000/svg" viewBox="0 0 121.62 180.85"><defs><style>.cls-1{fill:#7f8994;}.cls-2{fill:#f4f3f3;}.cls-3{fill:#dfbb4f;}</style></defs><title>Asset 1</title><g id="Layer_2" data-name="Layer 2"><g id="Layer_1-2" data-name="Layer 1"><g id="S"><path class="cls-1" d="M50.51,110.63l-30,17.42,0,6.52,30-17.42c1.64-1,2.47-2.2,2.47-3.45l0-6.52C53,108.43,52.15,109.68,50.51,110.63Z"/><path class="cls-1" d="M103.18,136.41l-14.9-8.6a1.87,1.87,0,0,0-.32-.15,1.31,1.31,0,0,0-.28-.09l-.13,0h-.1l-.23,0-.22,0h-.45l-.25,0-.29,0-.12,0-.11,0-.2,0a2.13,2.13,0,0,0-.49.21l-4.81,2.8,0,0-.11.08-.16.11h0l-.14.15,0,0,0,0,0,.06-.06.13v0l0,.08s0,.09,0,.13v0l0,6.52a1,1,0,0,1,0-.23v0a1,1,0,0,1,.1-.21l0,0a1.07,1.07,0,0,1,.18-.19l.15-.12.14-.1,4.82-2.8a2.47,2.47,0,0,1,.69-.26l.1,0a4.05,4.05,0,0,1,.78-.09h0a4.38,4.38,0,0,1,.82.1h0a3.35,3.35,0,0,1,.73.28l14.9,8.61a1.35,1.35,0,0,1,.63.68,1.09,1.09,0,0,1,0,.25l0-6.52A1.16,1.16,0,0,0,103.18,136.41Z"/><path class="cls-1" d="M36.05,139.32l-14.9-8.61a3.13,3.13,0,0,0-.32-.15l-.27-.09-.14,0h0l-.07,0-.22,0-.22,0-.23,0h-.48l-.29,0-.12,0-.11,0-.2.05a3,3,0,0,0-.48.21l-4.83,2.8,0,0-.12.09a.83.83,0,0,0-.15.11h0l-.14.15,0,0,0,0a.21.21,0,0,0,0,.06.38.38,0,0,0-.06.13v0a.24.24,0,0,1,0,.08.57.57,0,0,0,0,.13v0l0,6.52a.62.62,0,0,1,0-.23v0a1.06,1.06,0,0,1,.11-.21s0,0,0,0a1.12,1.12,0,0,1,.18-.2l.15-.11.15-.1L18,137.23a2.91,2.91,0,0,1,.68-.26l.11,0a4,4,0,0,1,.78-.08h0a3.68,3.68,0,0,1,.82.09h0a2.76,2.76,0,0,1,.73.27L36,145.84a1.13,1.13,0,0,1,.67.93v-6.52A1.12,1.12,0,0,0,36.05,139.32Z"/><path class="cls-1" d="M76.69,132.69l-30,17.42a10,10,0,0,1-1.19.56l-.33.12c-.25.1-.52.17-.79.25s-.56.15-.85.21-.69.13-1,.17l-.25,0a13.55,13.55,0,0,1-1.43.08h-.23a13.33,13.33,0,0,1-1.41-.08l-.21,0c-.46-.06-.92-.14-1.36-.24l-.25-.06a11.29,11.29,0,0,1-1.17-.35l-.21-.07a10.35,10.35,0,0,1-1.3-.61L2.52,131.53C.85,130.56,0,129.29,0,128l0,6.52c0,1.27.83,2.54,2.51,3.51l32.18,18.58a9.14,9.14,0,0,0,1.22.58l.07,0,.21.07c.25.09.49.18.75.25l.43.11.24.06.22.05q.41.09.84.15l.3,0,.22,0,.31,0c.27,0,.55,0,.83,0h.87c.32,0,.64,0,.95-.06l.1,0,.25,0c.25,0,.49-.06.73-.11s.2-.05.31-.07c.29-.06.57-.13.85-.21s.31-.07.45-.12a2.48,2.48,0,0,0,.35-.13l.32-.12a10,10,0,0,0,1.19-.56l30-17.42,24.14,13.94,0-6.52Z"/><path class="cls-1" d="M105.29,153.83l-4.84-2.8a3.13,3.13,0,0,0-.32-.15,1.31,1.31,0,0,0-.28-.09l-.14,0h0l-.06,0-.23,0-.22,0-.22,0h-.49l-.29,0-.12,0-.11,0-.2,0a3.61,3.61,0,0,0-.49.21l-14.8,8.61h0l-.11.09-.16.11h0L82,160l0,0,0,0,0,.06-.06.12v0l0,.08a.57.57,0,0,0,0,.13v0l0,6.52a.66.66,0,0,1,0-.23v0a2.12,2.12,0,0,1,.11-.21l0,0a1.51,1.51,0,0,1,.17-.2l.16-.11.14-.1,14.8-8.6a2.68,2.68,0,0,1,.7-.27l.1,0a4,4,0,0,1,.78-.08h0a3.84,3.84,0,0,1,.83.09h0a2.57,2.57,0,0,1,.73.28l4.85,2.79a1.13,1.13,0,0,1,.66.93v-6.52A1.09,1.09,0,0,0,105.29,153.83Z"/><path class="cls-1" d="M121.33,146.9a2.48,2.48,0,0,1,0,.27,1.6,1.6,0,0,1,0,.21l-.08.26a1.8,1.8,0,0,1-.08.21c0,.08-.08.17-.13.26l-.11.19c-.06.1-.13.2-.2.3l-.14.17a4.27,4.27,0,0,1-.36.38l-.14.14-.26.22-.24.18-.3.21-.32.21-36,20.9a10,10,0,0,1-1.19.56l-.33.12c-.25.1-.52.17-.79.25s-.56.15-.85.21-.69.13-1,.18l-.25,0a13.55,13.55,0,0,1-1.43.08h-.22a13,13,0,0,1-1.41-.08l-.22,0a12.07,12.07,0,0,1-1.36-.24l-.24,0a10.8,10.8,0,0,1-1.18-.36l-.21-.07a10.35,10.35,0,0,1-1.3-.61,5.46,5.46,0,0,1-2.16-2.1,3.16,3.16,0,0,1-.35-1.41h0l0,6.52c0,1.27.84,2.54,2.52,3.51a9.14,9.14,0,0,0,1.22.58l.07,0,.21.07c.25.09.49.18.75.25l.43.11.24.06.22.05c.27.06.56.11.84.15l.31,0,.21,0,.31,0c.27,0,.55,0,.83,0h.88c.31,0,.63,0,.94-.06l.1,0,.26,0,.72-.1.31-.08c.29-.06.57-.13.85-.21l.45-.11.35-.14.33-.12a10.68,10.68,0,0,0,1.18-.56l36-20.9.1-.06.22-.15.3-.2.24-.19a2.75,2.75,0,0,0,.26-.22l.05,0,.09-.09q.2-.19.36-.39l.08-.09.06-.08.2-.3s.06-.08.08-.12a.36.36,0,0,0,0-.07c0-.09.09-.17.13-.26l.07-.16,0-.05c0-.09,0-.17.07-.25s0-.12,0-.18v0a2.48,2.48,0,0,0,0-.27,1.11,1.11,0,0,0,0-.17v-.08l0-6.52A2.11,2.11,0,0,1,121.33,146.9Z"/><path class="cls-2" d="M118.85,143.15c3.32,1.92,3.34,5,0,7l-36,20.9a13.26,13.26,0,0,1-12,0c-3.33-1.93-3.35-5,0-7l30-17.41L76.69,132.69l-30,17.42a13.26,13.26,0,0,1-12,0L2.52,131.53c-3.32-1.92-3.34-5,0-7l36-20.9a13.26,13.26,0,0,1,12,0c3.33,1.92,3.35,5,0,7l-30,17.42,20.11,11.61,30-17.42a13.25,13.25,0,0,1,12,0Zm-87.6.81,4.82-2.8a1,1,0,0,0,0-1.84l-14.9-8.61a3.56,3.56,0,0,0-3.18,0l-4.83,2.8a1,1,0,0,0,0,1.85L28.06,144a3.52,3.52,0,0,0,3.19,0Zm67.13-2.9,4.82-2.8a1,1,0,0,0,0-1.85l-14.9-8.6a3.55,3.55,0,0,0-3.19,0l-4.81,2.8a1,1,0,0,0,0,1.84l14.9,8.61a3.55,3.55,0,0,0,3.19,0Z"/><path class="cls-1" d="M54.88,138.21a8.79,8.79,0,0,0,8,0c2.21-1.28,2.2-3.36,0-4.64a8.86,8.86,0,0,0-8,0c-2.21,1.28-2.2,3.36,0,4.64Z"/><path class="cls-1" d="M40.47,109.48a8.86,8.86,0,0,0,8,0c2.21-1.29,2.2-3.37,0-4.65a8.85,8.85,0,0,0-8,0c-2.21,1.28-2.2,3.36,0,4.65"/><path class="cls-1" d="M5.67,129.75a8.79,8.79,0,0,0,8,0c2.21-1.28,2.19-3.36,0-4.64a8.86,8.86,0,0,0-8,0c-2.2,1.28-2.19,3.36,0,4.64Z"/><path class="cls-1" d="M72.89,169.85a8.86,8.86,0,0,0,8,0c2.2-1.28,2.19-3.36,0-4.65a8.86,8.86,0,0,0-8,0c-2.21,1.29-2.19,3.37,0,4.65"/><path class="cls-1" d="M108.85,149a8.83,8.83,0,0,0,8,0c2.21-1.28,2.2-3.36,0-4.64a8.79,8.79,0,0,0-8,0c-2.21,1.28-2.2,3.36,0,4.64"/></g><g id="N_Lower" data-name="N Lower"><path class="cls-1" d="M60.29,82.69l-25-14.41a1.87,1.87,0,0,0-.32-.15l-.27-.1-.14,0h-.09l-.23,0-.22,0H33.6l-.25,0-.29,0-.12,0-.1,0a.8.8,0,0,0-.21,0,2.06,2.06,0,0,0-.48.21l-4.82,2.8,0,0-.12.08L27,71.3h0a.67.67,0,0,0-.14.15l0,0s0,0,0,0l0,.06a.31.31,0,0,0-.06.13v0a.29.29,0,0,1,0,.09.53.53,0,0,0,0,.13v0l0,6.52a.59.59,0,0,1,0-.23v0a1.06,1.06,0,0,1,.11-.21l0,0a1,1,0,0,1,.17-.19l.16-.12a.85.85,0,0,1,.14-.1l4.82-2.8a2.47,2.47,0,0,1,.69-.26l.1,0a4.05,4.05,0,0,1,.78-.09h0a3.68,3.68,0,0,1,.82.09h0a2.64,2.64,0,0,1,.73.28l25,14.41a1.13,1.13,0,0,1,.66.93V83.62A1.13,1.13,0,0,0,60.29,82.69Z"/><path class="cls-2" d="M84.4,100.8l-.35.22-.42.22a3.71,3.71,0,0,1-.4.19,5.11,5.11,0,0,1-.47.21l-.42.15-.54.17a8.42,8.42,0,0,1-1,.24l-.53.1-.54.07-.55,0-.57,0H78c-.21,0-.41,0-.61,0l-.43,0c-.24,0-.45,0-.68-.06l-.56-.08A11.22,11.22,0,0,1,72,101L3.64,61.55c-3.33-1.93-3.35-5,0-7a13.25,13.25,0,0,1,12,0L84,94.06l.37.24.33.22.35.28c.09.09.2.18.29.28s.18.19.27.28.17.22.26.33a4.18,4.18,0,0,1,.33.57c0,.1.09.2.13.31a1.54,1.54,0,0,1,.1.35,2.74,2.74,0,0,1,0,.28,2.22,2.22,0,0,1,0,.68c0,.09,0,.19,0,.29s-.08.27-.11.36a3.45,3.45,0,0,1-.14.34,2.29,2.29,0,0,1-.16.31,3.21,3.21,0,0,1-.21.3,2.09,2.09,0,0,1-.22.28c-.08.1-.17.19-.26.29a5.17,5.17,0,0,1-.6.51ZM55.48,87.34l4.82-2.8a1,1,0,0,0,0-1.85l-25-14.41a3.5,3.5,0,0,0-3.18,0l-4.82,2.8a1,1,0,0,0,0,1.84l25,14.42a3.53,3.53,0,0,0,3.18,0ZM74,99.87a8.86,8.86,0,0,0,8,0c2.21-1.28,2.19-3.37,0-4.65a8.82,8.82,0,0,0-8,0c-2.2,1.28-2.19,3.36,0,4.64ZM5.63,60.39a8.86,8.86,0,0,0,8,0c2.21-1.28,2.19-3.36,0-4.64a8.82,8.82,0,0,0-8,0c-2.2,1.28-2.19,3.36,0,4.64Z"/><path class="cls-1" d="M86.49,97.88c0,.09,0,.19,0,.29s-.08.27-.11.36a3.45,3.45,0,0,1-.14.34c0,.1-.1.21-.15.31a3.3,3.3,0,0,1-.22.3,2.09,2.09,0,0,1-.22.28,3.4,3.4,0,0,1-.26.29,5.17,5.17,0,0,1-.6.51l-.34.24-.34.22-.42.22-.4.19c-.16.08-.31.14-.48.21l-.42.15-.54.17a8,8,0,0,1-1,.24l-.53.1-.54.07-.55,0-.56,0H78a5.91,5.91,0,0,1-.6,0l-.44,0c-.23,0-.45,0-.68-.06l-.55-.08-.81-.17L74.5,102l-.48-.14c-.19-.05-.37-.12-.55-.18l-.37-.14A10.8,10.8,0,0,1,72,101L8.66,64.44l-5-2.89C2,60.58,1.13,59.31,1.13,58l0,6.52c0,1.27.84,2.54,2.52,3.51l5,2.9L72,107.55a12,12,0,0,0,1.08.52l.14.06.23.08.55.19.23.07a2.27,2.27,0,0,0,.25.06l.45.11.26.07.55.1.32,0,.23,0,.43,0,.25,0,.44,0h0l.25,0h1l.49,0,.31,0,.24,0,.51-.07h0l.32-.06.22,0h0a8.1,8.1,0,0,0,1-.24l.54-.17.42-.15c.17-.07.33-.13.48-.21l.4-.18.42-.23.08-.05.27-.17.33-.24a4.37,4.37,0,0,0,.46-.37,1.85,1.85,0,0,0,.14-.14,2.35,2.35,0,0,0,.26-.29.94.94,0,0,0,.1-.1l.12-.18,0-.06c.06-.07.11-.16.17-.24s0,0,0,0l.15-.29c0-.08.07-.16.1-.25l0-.09a2.74,2.74,0,0,0,.11-.36c0-.1,0-.19,0-.29a2.28,2.28,0,0,0,0-.26v-.06l0-6.52C86.51,97.66,86.5,97.77,86.49,97.88Z"/><path class="cls-1" d="M74,99.87a8.86,8.86,0,0,0,8,0c2.21-1.28,2.19-3.37,0-4.65a8.82,8.82,0,0,0-8,0c-2.2,1.28-2.19,3.36,0,4.64"/><path class="cls-1" d="M5.63,60.39a8.86,8.86,0,0,0,8,0c2.21-1.28,2.19-3.36,0-4.64a8.79,8.79,0,0,0-8,0c-2.21,1.28-2.2,3.36,0,4.64"/></g><g id="N_Middle" data-name="N Middle"><path class="cls-2" d="M121.6,52.56c0,2.71-3.8,4.92-8.49,4.92L9.66,57.35a13.69,13.69,0,0,1-4-.57,10.51,10.51,0,0,1-2-.87c-1.55-.9-2.51-2.13-2.52-3.49,0-2.72,3.8-4.92,8.5-4.92l103.45.13a12.24,12.24,0,0,1,6,1.44A4.28,4.28,0,0,1,121.6,52.56ZM7,55.33c2.77.85,6.2.24,7.66-1.36,1.19-1.3.71-2.87-1-3.86a6.45,6.45,0,0,0-1.35-.58c-2.77-.85-6.2-.25-7.66,1.36-1.19,1.3-.7,2.87,1,3.86A6.14,6.14,0,0,0,7,55.33Zm103.46.12c2.77.85,6.2.24,7.66-1.36,1.19-1.31.7-2.87-1-3.86a6.45,6.45,0,0,0-1.35-.58c-2.77-.86-6.2-.24-7.66,1.36-1.19,1.3-.7,2.87,1,3.86a6.45,6.45,0,0,0,1.35.58Zm-53.83-.19c2.78.85,6.2.24,7.67-1.36,1.19-1.3.7-2.87-1-3.86a6.45,6.45,0,0,0-1.35-.58c-2.77-.85-6.2-.24-7.67,1.36-1.19,1.3-.69,2.87,1,3.86a6.6,6.6,0,0,0,1.34.58Z"/><path class="cls-1" d="M121.57,52.87a1.79,1.79,0,0,1,0,.23,2.5,2.5,0,0,1-.07.26l-.06.22c0,.08-.07.15-.1.22s-.07.17-.12.26l-.11.16a2.2,2.2,0,0,1-.21.32l-.13.15a4.25,4.25,0,0,1-.35.39l-.16.15-.28.23-.22.17-.33.22-.22.14q-.39.23-.81.42l-.2.09-.82.32-.13,0a12.26,12.26,0,0,1-1.56.39h0c-.32.06-.65.1-1,.14l-.35,0-.52,0-.69,0L9.66,57.35q-.44,0-.87,0H8.54c-.32,0-.63-.06-.93-.11l-.2,0L6.71,57l-.39-.1-.63-.16c-.32-.1-.62-.22-.91-.34a8.29,8.29,0,0,1-1.12-.53c-1.55-.9-2.51-2.13-2.52-3.49v6.52c0,1.36,1,2.59,2.51,3.49A9.71,9.71,0,0,0,4.76,63l.12.05c.25.1.52.19.79.28l.26.08c.12,0,.25,0,.37.09l.39.09.12,0,.58.1.2,0h0q.39.06.81.09h.33l.5,0h.37L113.1,64h.68l.52,0h.25l.1,0c.34,0,.66-.08,1-.14h0a11.85,11.85,0,0,0,1.56-.39h0l.1,0c.28-.1.56-.2.82-.32l.2-.08a7.82,7.82,0,0,0,.81-.43l0,0,.18-.12a3.78,3.78,0,0,0,.33-.22,1.84,1.84,0,0,0,.22-.17l.28-.23.08-.06.08-.09c.13-.13.25-.25.36-.38a.87.87,0,0,1,.08-.1.21.21,0,0,0,0-.06c.08-.1.15-.21.22-.31a1.1,1.1,0,0,1,.09-.14s0,0,0,0a2.06,2.06,0,0,0,.12-.26,1.51,1.51,0,0,0,.09-.18s0,0,0,0a1.41,1.41,0,0,0,.06-.22c0-.07.05-.14.07-.22v0l0-.23c0-.07,0-.14,0-.22v-.09l0-6.52A1.63,1.63,0,0,1,121.57,52.87Z"/><path class="cls-1" d="M14.67,54a6.29,6.29,0,0,1-4,1.68,8.91,8.91,0,0,1-2,0A9.1,9.1,0,0,1,7,55.32a6.45,6.45,0,0,1-1.35-.58c-1.72-1-2.21-2.56-1-3.86a6.36,6.36,0,0,1,4-1.7,10.29,10.29,0,0,1,2,0,9,9,0,0,1,1.64.33,6.45,6.45,0,0,1,1.35.57C15.38,51.09,15.86,52.65,14.67,54Z"/><path class="cls-1" d="M56.64,55.26c2.76.85,6.2.24,7.66-1.36,1.18-1.3.7-2.87-1-3.86a6.32,6.32,0,0,0-1.36-.58c-2.76-.85-6.19-.24-7.66,1.36-1.18,1.31-.69,2.87,1,3.87a7,7,0,0,0,1.35.57"/><path class="cls-1" d="M110.46,55.45c2.77.85,6.2.24,7.66-1.36,1.19-1.31.71-2.87-1-3.87a6.45,6.45,0,0,0-1.35-.57c-2.77-.85-6.2-.25-7.66,1.36-1.19,1.3-.7,2.87,1,3.86a6.45,6.45,0,0,0,1.35.58"/></g><g id="N_Upper" data-name="N Upper"><path class="cls-1" d="M95.41,31.39,70.45,17a1.87,1.87,0,0,0-.32-.15,1.43,1.43,0,0,0-.27-.09l-.14,0h0l-.07,0-.22,0-.22,0-.23,0h-.48l-.29,0-.12,0-.11,0-.2.05a2.32,2.32,0,0,0-.48.21l-4.82,2.8,0,0-.12.09a.83.83,0,0,0-.15.11h0a1,1,0,0,0-.14.15l0,0s0,0,0,0l0,.06a.38.38,0,0,0-.06.13v0s0,.05,0,.08a.53.53,0,0,0,0,.13v0h0v6.52a.85.85,0,0,1,0-.23v0a1.06,1.06,0,0,1,.11-.21l0,0a1.12,1.12,0,0,1,.18-.2l.15-.11.15-.11,4.82-2.8a2.91,2.91,0,0,1,.68-.26l.11,0a4,4,0,0,1,.78-.08h0a3.68,3.68,0,0,1,.82.09h0a3,3,0,0,1,.73.28l25,14.42a1.64,1.64,0,0,1,.29.2,1,1,0,0,1,.37.72l0-6.52A1.14,1.14,0,0,0,95.41,31.39Z"/><path class="cls-1" d="M121.62,46.29h0c0,.1,0,.2,0,.3a2.93,2.93,0,0,1,0,.29l0,.11c0,.07,0,.13,0,.18a.19.19,0,0,0,0,.07,3.45,3.45,0,0,1-.14.34,2.29,2.29,0,0,1-.16.31h0l0,0a2.2,2.2,0,0,1-.17.25h0a2.09,2.09,0,0,1-.23.29l-.17.19-.08.09h0a4.45,4.45,0,0,1-.61.51l-.33.24-.35.22h0l-.42.23-.4.19-.24.1-.23.1-.42.15-.19.06-.35.11a10.34,10.34,0,0,1-1,.25h0l-.52.09-.27,0-.27,0h0l-.54.05h0l-.57,0h-.56c-.21,0-.41,0-.61,0l-.43,0c-.24,0-.46,0-.68-.06l-.56-.08-.81-.17-.45-.11-.47-.13-.56-.19-.36-.14a9.84,9.84,0,0,1-1.08-.52h0L38.76,10.25a5.74,5.74,0,0,1-1.89-1.64q-.15-.22-.27-.45a2.92,2.92,0,0,1-.35-1.41h0l0,6.52a2.49,2.49,0,0,0,0,.47,4.55,4.55,0,0,0,2.47,3h0l68.38,39.47a8.3,8.3,0,0,0,1.08.52l.13.06.23.08.56.19.23.08.24.06.45.11a2.44,2.44,0,0,1,.26.06l.55.1h0l.32.05.24,0h0l.35,0,.3,0,.43,0h0c.2,0,.4,0,.61,0h.63l.5,0,.31,0,.24,0,.54-.08.38-.07.14,0h0l.52-.13c.17,0,.35-.07.51-.12l.25-.08.29-.09.42-.15a5.11,5.11,0,0,0,.47-.2l.4-.19.42-.23.08-.05.26-.16h0c.12-.07.22-.16.34-.24h0a4.23,4.23,0,0,0,.45-.37l.15-.14c.09-.1.17-.18.25-.28h0l.11-.12.12-.17h0l.18-.26,0,0h0v0a1.59,1.59,0,0,0,.15-.29,1.89,1.89,0,0,0,.11-.25l0-.08h0s0-.09,0-.15a2.18,2.18,0,0,0,.06-.22,2.93,2.93,0,0,0,0-.29,1.64,1.64,0,0,0,0-.22v-.07l0-6.53Z"/><path class="cls-2" d="M119.52,49.5l-.35.22-.42.23-.4.19a5.11,5.11,0,0,1-.47.2l-.42.15-.54.17a10.34,10.34,0,0,1-1,.25l-.52.09-.54.08-.55.05-.57,0h-.56c-.21,0-.41,0-.61,0l-.43,0c-.24,0-.46,0-.68-.06l-.56-.08a11.14,11.14,0,0,1-3.73-1.26L38.76,10.25c-3.34-1.92-3.35-5,0-7a13.26,13.26,0,0,1,12,0l68.37,39.48.38.23.32.23.36.27.28.28a2.34,2.34,0,0,1,.27.28c.1.11.18.22.27.34a4.48,4.48,0,0,1,.32.56c0,.1.09.21.14.31a2.68,2.68,0,0,1,.1.35c0,.1,0,.19,0,.28a2.22,2.22,0,0,1,0,.68,2.93,2.93,0,0,1,0,.29c0,.18-.08.28-.1.36a3.45,3.45,0,0,1-.14.34,2.29,2.29,0,0,1-.16.31q-.11.16-.21.3a2.09,2.09,0,0,1-.23.29c-.08.1-.16.18-.25.28a4.45,4.45,0,0,1-.61.51ZM90.6,36l4.82-2.8a1,1,0,0,0,0-1.85L70.45,17a3.56,3.56,0,0,0-3.18,0l-4.82,2.8a1,1,0,0,0,0,1.85L87.42,36a3.53,3.53,0,0,0,3.18,0"/><path class="cls-1" d="M40.75,9.09a8.79,8.79,0,0,0,8,0c2.2-1.28,2.19-3.36,0-4.64a8.86,8.86,0,0,0-8,0c-2.21,1.28-2.19,3.36,0,4.64"/><path class="cls-1" d="M109,48.48a8.83,8.83,0,0,0,8,0c2.21-1.28,2.2-3.36,0-4.64a8.82,8.82,0,0,0-8,0c-2.21,1.28-2.19,3.36,0,4.64"/></g><path class="cls-3" d="M114.06,0V49.39a9.55,9.55,0,0,1-2,0V0Z"/><path class="cls-3" d="M114.06,64v85.87a8.9,8.9,0,0,1-2,0V64h1.72Z"/><polygon class="cls-3" points="114.06 159.42 114.06 180.85 112.06 180.85 112.06 160.59 114.06 159.42"/><path class="cls-3" d="M60.17,0V55.6a8.94,8.94,0,0,1-2,0V0Z"/><polygon class="cls-3" points="60.17 63.93 60.17 80.3 58.17 79.15 58.17 63.93 60.17 63.93"/><path class="cls-3" d="M60.17,100.72v38.37a9.52,9.52,0,0,1-2,.06V99.56Z"/><polygon class="cls-3" points="60.17 148.8 60.17 180.85 58.17 180.85 58.17 149.96 60.17 148.8"/><path class="cls-3" d="M10.66,0V55.64a8.91,8.91,0,0,1-2,0V0Z"/><path class="cls-3" d="M10.66,72.13v58.54a9.55,9.55,0,0,1-2,0V71Z"/><polygon class="cls-3" points="10.66 142.76 10.66 180.85 8.66 180.85 8.66 141.6 10.66 142.76"/></g></g></svg>