<svg xmlns="http://www.w3.org/2000/svg" viewBox="0 0 415.33 241.86"><defs><style>.cls-1{font-size:41px;fill:#f3f2f2;font-family:HalyardDisplay-Bold, Halyard Display;font-weight:700;letter-spacing:-0.01em;}.cls-2{letter-spacing:-0.01em;}.cls-3{letter-spacing:-0.01em;}.cls-4{letter-spacing:-0.02em;}.cls-5{letter-spacing:-0.01em;}.cls-6{letter-spacing:-0.02em;}.cls-7{letter-spacing:-0.03em;}.cls-8{letter-spacing:-0.03em;}.cls-9{letter-spacing:-0.01em;}.cls-10{letter-spacing:-0.02em;}.cls-11{letter-spacing:-0.01em;}.cls-12{letter-spacing:-0.03em;}.cls-13{letter-spacing:-0.03em;}.cls-14{letter-spacing:0.01em;}.cls-15{letter-spacing:-0.02em;}.cls-16{letter-spacing:-0.04em;}.cls-17{letter-spacing:-0.01em;}.cls-18{letter-spacing:-0.03em;}.cls-19{letter-spacing:-0.01em;}.cls-20{letter-spacing:-0.01em;}.cls-21{letter-spacing:-0.05em;}.cls-22{letter-spacing:-0.02em;}.cls-23{letter-spacing:-0.06em;}.cls-24{letter-spacing:-0.01em;}.cls-25{letter-spacing:-0.02em;}.cls-26{letter-spacing:-0.03em;}.cls-27{letter-spacing:-0.02em;}.cls-28{letter-spacing:-0.02em;}.cls-29{letter-spacing:-0.01em;}.cls-30{letter-spacing:-0.01em;}.cls-31{letter-spacing:-0.07em;}.cls-32{letter-spacing:-0.01em;}</style></defs><title>Asset 4</title><g id="Layer_2" data-name="Layer 2"><g id="Layer_1-2" data-name="Layer 1"><text class="cls-1" transform="translate(0 34.11)">C<tspan class="cls-2" x="27.96" y="0">o</tspan><tspan class="cls-3" x="51.25" y="0">n</tspan><tspan class="cls-4" x="73.8" y="0">s</tspan><tspan class="cls-2" x="92.54" y="0">u</tspan><tspan class="cls-5" x="114.68" y="0">l</tspan><tspan class="cls-6" x="124.97" y="0">t</tspan><tspan class="cls-7" x="138.29" y="0">a</tspan><tspan class="cls-2" x="159.49" y="0">tion</tspan><tspan class="cls-8" x="228.78" y="0">.</tspan><tspan class="cls-9"><tspan x="0" y="49.2">C</tspan><tspan class="cls-10" x="27.92" y="49.2">u</tspan><tspan class="cls-11" x="49.98" y="49.2">s</tspan><tspan class="cls-12" x="68.88" y="49.2">t</tspan><tspan class="cls-2" x="81.75" y="49.2">om S</tspan><tspan class="cls-13" x="172.12" y="49.2">o</tspan><tspan class="cls-14" x="194.5" y="49.2">f</tspan><tspan class="cls-15" x="209.02" y="49.2">t</tspan><tspan class="cls-16" x="222.38" y="49.2">w</tspan><tspan class="cls-2" x="252.64" y="49.2">a</tspan><tspan class="cls-10" x="274.41" y="49.2">r</tspan><tspan class="cls-17" x="289.62" y="49.2">e</tspan><tspan class="cls-18" x="311.43" y="49.2">.</tspan></tspan><tspan class="cls-19"><tspan x="0" y="98.4">D</tspan><tspan class="cls-20" x="28.54" y="98.4">e</tspan><tspan class="cls-17" x="50.47" y="98.4">s</tspan><tspan class="cls-15" x="69.41" y="98.4">i</tspan><tspan class="cls-17" x="79.5" y="98.4">gn</tspan><tspan class="cls-21" x="124.19" y="98.4"> </tspan><tspan class="cls-22" x="130.54" y="98.4">&amp;</tspan><tspan class="cls-2" x="159.57" y="98.4"> </tspan><tspan class="cls-9" x="167.4" y="98.4">D</tspan><tspan class="cls-23" x="195.94" y="98.4">e</tspan><tspan class="cls-16" x="215.82" y="98.4">v</tspan><tspan class="cls-17" x="235.75" y="98.4">e</tspan><tspan class="cls-6" x="257.56" y="98.4">l</tspan><tspan class="cls-2" x="267.6" y="98.4">op</tspan><tspan class="cls-11" x="314.55" y="98.4">m</tspan><tspan class="cls-24" x="348.54" y="98.4">e</tspan><tspan class="cls-25" x="370.35" y="98.4">n</tspan><tspan class="cls-9" x="392.41" y="98.4">t</tspan><tspan class="cls-26" x="405.94" y="98.4">.</tspan></tspan><tspan x="0" y="147.6">C</tspan><tspan class="cls-2" x="27.96" y="147.6">o</tspan><tspan class="cls-27" x="51.25" y="147.6">n</tspan><tspan class="cls-2" x="73.31" y="147.6">t</tspan><tspan class="cls-28" x="86.8" y="147.6">r</tspan><tspan class="cls-29" x="101.8" y="147.6">a</tspan><tspan class="cls-27" x="123.49" y="147.6">c</tspan><tspan class="cls-2" x="144.85" y="147.6">ti</tspan><tspan class="cls-30" x="168.55" y="147.6">n</tspan><tspan class="cls-2" x="190.89" y="147.6">g </tspan><tspan class="cls-31" x="221.11" y="147.6">W</tspan><tspan class="cls-2" x="257.03" y="147.6">o</tspan><tspan class="cls-11" x="280.31" y="147.6">r</tspan><tspan class="cls-32" x="295.56" y="147.6">k</tspan><tspan class="cls-26" x="317.79" y="147.6">.</tspan></text></g></g></svg>