<svg xmlns="http://www.w3.org/2000/svg" viewBox="0 0 414.13 184.38"><defs><style>.cls-1{fill:#f3f2f2;}</style></defs><title>Asset 2</title><g id="Layer_2" data-name="Layer 2"><g id="Layer_1-2" data-name="Layer 1"><path class="cls-1" d="M1,20.54C1,11.85,6.6,6.31,14.88,6.31c7.26,0,11.73,4,12.71,10.83H20.38c-.58-2.79-2.38-4.43-5.25-4.43-3.69,0-5.41,2.46-5.41,7.38v.82c0,4.92,1.68,7.38,5.25,7.38,3.07,0,4.92-1.48,5.41-5.13h7.38c-.54,8.08-5.78,11.53-13,11.53C6.44,34.69,1,29.19,1,20.54Z" transform="translate(-1.03 -6.31)"/><path class="cls-1" d="M28.74,24.44c0-6.2,4.18-10.17,11.19-10.17S51,18.2,51,24.44,46.82,34.6,39.77,34.6,28.74,30.71,28.74,24.44Zm14.35.2v-.37c0-3.44-1.11-5-3.24-5s-3.2,1.52-3.2,5v.37c0,3.44,1.07,4.92,3.2,4.92S43.09,28,43.09,24.64Z" transform="translate(-1.03 -6.31)"/><path class="cls-1" d="M60.31,17.63a6.23,6.23,0,0,1,5.86-3.4c4.23,0,6.77,2.78,6.77,8.11V34.11H65.19V23c0-2-.66-3-2.3-3s-2.5,1.31-2.5,3.6V34.11H52.64V14.76h7.67Z" transform="translate(-1.03 -6.31)"/><path class="cls-1" d="M74.17,31.45l3.44-3.82a8.87,8.87,0,0,0,5.7,2.46c1.27,0,2.09-.41,2.09-1.23,0-1-1.68-1.31-3.93-1.84-3-.74-6.85-2.09-6.85-6.23,0-3.9,3.57-6.65,8.49-6.65,4.38,0,7.29,1.28,9.39,3.28,0,.17-3.2,3.69-3.2,3.69a8.8,8.8,0,0,0-5.54-2.33c-1.27,0-2,.45-2,1.23,0,1,1.15,1.23,3.61,1.76,3.08.74,7.3,1.89,7.3,6.27,0,4-3.69,6.69-8.65,6.69C79.5,34.73,76.46,33.42,74.17,31.45Z" transform="translate(-1.03 -6.31)"/><path class="cls-1" d="M93.68,26.53V14.76h7.67V25.91c0,1.93.7,3,2.34,3s2.42-1.39,2.42-3.6V14.76h7.66V34.11h-7.58V31.49a5.94,5.94,0,0,1-5.58,3.11C96.31,34.6,93.68,31.73,93.68,26.53Z" transform="translate(-1.03 -6.31)"/><path class="cls-1" d="M123.94,34.11h-7.75V6.72h7.75Z" transform="translate(-1.03 -6.31)"/><path class="cls-1" d="M132.67,34.11c-4.3-.33-5.08-2.34-5.12-6.11V19.52h-2.34V14.76h2.34v-3.9l7.62-3.32v7.22h3v4.76h-3.16V28a1,1,0,0,0,1.11,1.07h2v5Z" transform="translate(-1.03 -6.31)"/><path class="cls-1" d="M139,29c0-4.23,3.77-5.25,7.5-6,3-.57,5.13-.65,5.29-1.64v-.12c0-1.23-.78-1.89-2.34-1.89-1.76,0-2.66.82-2.74,2.22v.32h-7.22c.08-4.67,3.65-7.66,10.05-7.66,6.56,0,9.88,2.5,9.88,8.53V34.11h-7.67v-2.7a6.66,6.66,0,0,1-6.11,3.28C141.57,34.69,139,32.51,139,29Zm12.79-1.64V25.05a17.93,17.93,0,0,1-2.46.74c-1.43.41-2.62.9-2.62,2.46a1.77,1.77,0,0,0,2,1.8A2.9,2.9,0,0,0,151.78,27.39Z" transform="translate(-1.03 -6.31)"/><path class="cls-1" d="M167.2,34.11c-4.31-.33-5.09-2.34-5.13-6.11V19.52h-2.34V14.76h2.34v-3.9l7.63-3.32v7.22h3v4.76h-3.16V28a1,1,0,0,0,1.11,1.07h2v5Z" transform="translate(-1.03 -6.31)"/><path class="cls-1" d="M182.24,12.71h-7.83V6.93h7.83Zm0,21.4h-7.7V14.76h7.7Z" transform="translate(-1.03 -6.31)"/><path class="cls-1" d="M184,24.44c0-6.2,4.19-10.17,11.2-10.17s11.07,3.93,11.07,10.17S202.05,34.6,195,34.6,184,30.71,184,24.44Zm14.36.2v-.37c0-3.44-1.11-5-3.24-5s-3.2,1.52-3.2,5v.37c0,3.44,1.06,4.92,3.2,4.92S198.32,28,198.32,24.64Z" transform="translate(-1.03 -6.31)"/><path class="cls-1" d="M215.54,17.63a6.21,6.21,0,0,1,5.86-3.4c4.22,0,6.76,2.78,6.76,8.11V34.11h-7.75V23c0-2-.65-3-2.29-3s-2.5,1.31-2.5,3.6V34.11h-7.75V14.76h7.67Z" transform="translate(-1.03 -6.31)"/><path class="cls-1" d="M238,34.11h-7.79V26.53H238Z" transform="translate(-1.03 -6.31)"/><path class="cls-1" d="M1,69.74C1,61.05,6.6,55.51,14.88,55.51c7.26,0,11.73,4,12.71,10.83H20.38c-.58-2.79-2.38-4.43-5.25-4.43-3.69,0-5.41,2.46-5.41,7.38v.82c0,4.92,1.68,7.38,5.25,7.38,3.07,0,4.92-1.48,5.41-5.13h7.38c-.54,8.08-5.78,11.53-13,11.53C6.44,83.89,1,78.39,1,69.74Z" transform="translate(-1.03 -6.31)"/><path class="cls-1" d="M29.07,75.73V64h7.67V75.11c0,1.93.69,3,2.33,3s2.42-1.39,2.42-3.6V64h7.67V83.31H41.57V80.69A5.92,5.92,0,0,1,36,83.8C31.69,83.8,29.07,80.93,29.07,75.73Z" transform="translate(-1.03 -6.31)"/><path class="cls-1" d="M50.35,80.65l3.44-3.82a8.87,8.87,0,0,0,5.7,2.46c1.27,0,2.09-.41,2.09-1.23,0-1-1.68-1.31-3.93-1.84-3-.74-6.85-2.09-6.85-6.23,0-3.9,3.57-6.65,8.49-6.65,4.38,0,7.29,1.28,9.38,3.28,0,.17-3.19,3.69-3.19,3.69A8.8,8.8,0,0,0,59.94,68c-1.27,0-2,.45-2,1.23,0,1,1.15,1.23,3.61,1.76,3.08.74,7.3,1.89,7.3,6.27,0,4-3.69,6.69-8.65,6.69C55.68,83.93,52.64,82.61,50.35,80.65Z" transform="translate(-1.03 -6.31)"/><path class="cls-1" d="M76.59,83.31C72.28,83,71.5,81,71.46,77.2V68.72H69.12V64h2.34v-3.9l7.63-3.32V64h3v4.76H79v8.52a1,1,0,0,0,1.11,1.07h2v5Z" transform="translate(-1.03 -6.31)"/><path class="cls-1" d="M82.53,73.64c0-6.2,4.18-10.17,11.2-10.17S104.8,67.4,104.8,73.64,100.61,83.8,93.56,83.8,82.53,79.91,82.53,73.64Zm14.35.2v-.37c0-3.44-1.1-5-3.24-5s-3.19,1.52-3.19,5v.37c0,3.44,1.06,4.92,3.19,4.92S96.88,77.24,96.88,73.84Z" transform="translate(-1.03 -6.31)"/><path class="cls-1" d="M114.1,67.08A6,6,0,0,1,120,63.43c3,0,4.79,1.27,5.57,4,.9-2.46,3-4,6.52-4,4.1,0,6.44,2.62,6.44,8.07V83.31h-7.75v-11c0-2.13-.66-3.11-2.13-3.11-1.77,0-2.3,1.14-2.3,3.6V83.31h-7.71V72.2c0-2-.65-3-2.13-3s-2.3,1.06-2.3,3.6V83.31h-7.74V64h7.66Z" transform="translate(-1.03 -6.31)"/><path class="cls-1" d="M147.48,74.37h6.88c.54,2.67,2.14,4.1,5.7,4.1,2.13,0,3.41-1,3.41-2.54s-2.63-2.09-5.79-2.83c-4.38-1-9.63-2.66-9.63-8.28s4.84-9.31,11.68-9.31c7.43,0,11.28,3.73,11.69,9.39h-6.77c-.45-2.66-1.72-4-5-4-2,0-3.28,1-3.28,2.59,0,1.84,2.92,2.25,6.24,3,4.3,1,9.22,2.5,9.22,8.16s-4.47,9.22-11.73,9.22C152.19,83.84,148,79.5,147.48,74.37Z" transform="translate(-1.03 -6.31)"/><path class="cls-1" d="M172.89,73.64c0-6.2,4.19-10.17,11.2-10.17s11.07,3.93,11.07,10.17S191,83.8,183.92,83.8,172.89,79.91,172.89,73.64Zm14.36.2v-.37c0-3.44-1.11-5-3.24-5s-3.2,1.52-3.2,5v.37c0,3.44,1.06,4.92,3.2,4.92S187.25,77.24,187.25,73.84Z" transform="translate(-1.03 -6.31)"/><path class="cls-1" d="M197.58,69H195V64h2.63V63.1c0-5,1.43-6.77,6-7.18h4.88v5.25h-1.06c-2,0-2.79.12-2.67,2.79h3.53V69h-3.12V83.31h-7.58Z" transform="translate(-1.03 -6.31)"/><path class="cls-1" d="M216.72,83.31c-4.3-.33-5.08-2.34-5.12-6.11V68.72h-2.34V64h2.34v-3.9l7.62-3.32V64h3v4.76H219.1v8.52a1,1,0,0,0,1.11,1.07h2v5Z" transform="translate(-1.03 -6.31)"/><path class="cls-1" d="M232.92,73.76l3-9.8h6.36l2.91,9.88L247.76,64h6.32L247.8,83.31h-6.39l-3.16-10.7-3.16,10.7h-6.48L222.5,64h7.79Z" transform="translate(-1.03 -6.31)"/><path class="cls-1" d="M253.34,78.23c0-4.23,3.77-5.25,7.5-6,3-.57,5.12-.65,5.29-1.64v-.12c0-1.23-.78-1.89-2.34-1.89-1.76,0-2.66.82-2.75,2.22v.32h-7.21c.08-4.67,3.65-7.66,10-7.66,6.56,0,9.88,2.5,9.88,8.53V83.31h-7.66v-2.7A6.66,6.66,0,0,1,260,83.89C255.92,83.89,253.34,81.71,253.34,78.23Zm12.79-1.64V74.25a17.93,17.93,0,0,1-2.46.74c-1.44.41-2.63.9-2.63,2.46a1.77,1.77,0,0,0,2,1.8A2.9,2.9,0,0,0,266.13,76.59Z" transform="translate(-1.03 -6.31)"/><path class="cls-1" d="M283.59,67.24c.7-2.13,2.34-3.36,5.38-3.36h.53v6.68h-2.67c-2.58,0-3.24,1.07-3.24,3.36v9.39H275.8V64h7.79Z" transform="translate(-1.03 -6.31)"/><path class="cls-1" d="M290.36,73.76c0-6.27,4.06-10.33,10.62-10.33S311.35,67.32,311.35,74v1.28H297.7a3.47,3.47,0,0,0,3.85,3.48,3.56,3.56,0,0,0,3.77-2.5l5.91,1.35c-1.31,4.14-4.27,6.19-10.13,6.19C294.29,83.8,290.36,80,290.36,73.76Zm7.3-2.09H304c-.12-2.3-1.06-3.45-3-3.45S297.86,69.45,297.66,71.67Z" transform="translate(-1.03 -6.31)"/><path class="cls-1" d="M320.66,83.31h-7.79V75.73h7.79Z" transform="translate(-1.03 -6.31)"/><path class="cls-1" d="M1.64,105.29h12C21.85,105.29,28,109,28,119c0,9.64-6.47,13.53-14.76,13.53H1.64ZM10,127h2.88c4.59,0,6.43-2.14,6.43-8v-.16c0-5.91-1.8-8-6.35-8H10Z" transform="translate(-1.03 -6.31)"/><path class="cls-1" d="M29.27,123c0-6.27,4.06-10.33,10.62-10.33s10.38,3.89,10.38,10.57v1.28H36.61A3.48,3.48,0,0,0,40.47,128a3.56,3.56,0,0,0,3.77-2.5l5.9,1.35C48.83,131,45.88,133,40,133,33.21,133,29.27,129.23,29.27,123Zm7.3-2.09h6.36c-.13-2.3-1.07-3.45-3-3.45S36.78,118.65,36.57,120.87Z" transform="translate(-1.03 -6.31)"/><path class="cls-1" d="M50.84,129.85,54.28,126a8.87,8.87,0,0,0,5.7,2.46c1.27,0,2.09-.41,2.09-1.23,0-1-1.68-1.31-3.93-1.84-3-.74-6.85-2.09-6.85-6.23,0-3.9,3.57-6.65,8.49-6.65,4.38,0,7.3,1.28,9.39,3.28,0,.17-3.2,3.69-3.2,3.69a8.8,8.8,0,0,0-5.54-2.33c-1.27,0-2,.45-2,1.23,0,1,1.15,1.23,3.61,1.76,3.08.74,7.3,1.89,7.3,6.27,0,4-3.69,6.69-8.65,6.69C56.17,133.13,53.13,131.81,50.84,129.85Z" transform="translate(-1.03 -6.31)"/><path class="cls-1" d="M78.68,111.11H70.85v-5.78h7.83Zm0,21.4H70.93V113.16h7.71Z" transform="translate(-1.03 -6.31)"/><path class="cls-1" d="M86.59,126.48c-.74.17-1.15.5-1.15,1,0,.61.74.94,2.18.94h5.69c5.79,0,8.9,2.13,8.9,6.07,0,4.67-3.85,7.05-11.64,7.05-7.55,0-11-1.52-11-4.88,0-1.93,1.19-3.28,3.65-4-1.93-.49-3-1.68-3-3.4s1.23-3,3.44-3.85a6.19,6.19,0,0,1-3.12-5.5c0-4.18,4-7.25,9.72-7.25,3.69,0,6.56,1.31,8.12,3.44a3.86,3.86,0,0,1,3.81-2.87v5.94a2.69,2.69,0,0,0-2.66.13,2.55,2.55,0,0,1,0,.53c0,4.39-3.65,7.09-9.6,7.09A14.46,14.46,0,0,1,86.59,126.48Zm1.64,8c-1.89.16-3,.7-3,1.6,0,1.06,1.51,1.64,5.41,1.64s5.62-.58,5.62-1.72-1-1.52-4.14-1.52Zm4.59-14.56v-.24a2.65,2.65,0,1,0-5.29,0v.24a2.65,2.65,0,1,0,5.29,0Z" transform="translate(-1.03 -6.31)"/><path class="cls-1" d="M110.94,116a6.23,6.23,0,0,1,5.87-3.4c4.22,0,6.76,2.78,6.76,8.11v11.77h-7.75V121.36c0-2-.65-3-2.29-3s-2.5,1.31-2.5,3.6v10.54h-7.75V113.16h7.66Z" transform="translate(-1.03 -6.31)"/><path class="cls-1" d="M131.2,124.93c0-4.19,2.74-7,6.93-8.41a8.85,8.85,0,0,1-1.32-4.43c0-4.42,3.61-7.58,9.07-7.58,4.42,0,7.79,2.87,7.79,6.85,0,3.48-2.34,5.69-6,6.8l3.48,4a29.25,29.25,0,0,0,3.28-7.34h5.66a38.6,38.6,0,0,1-5.53,11.11c2.25,2.46,4.75,5.21,5.94,6.6h-9l-1.8-2a16,16,0,0,1-8.86,2.59C134.72,133.13,131.2,129.48,131.2,124.93Zm9.22-5.33a4.66,4.66,0,0,0-2.33,4.06c0,2.29,1.64,4.26,4.71,4.26a7.13,7.13,0,0,0,3.65-1c-1.64-1.8-3.2-3.64-4.43-5.2A16.66,16.66,0,0,1,140.42,119.6Zm4.84-4.6c2.46-.24,3.57-1.72,3.57-3.28a2.18,2.18,0,0,0-2.22-2.37,2.3,2.3,0,0,0-2.37,2.54A5.67,5.67,0,0,0,145.26,115Z" transform="translate(-1.03 -6.31)"/><path class="cls-1" d="M169,105.29h12c8.2,0,14.35,3.73,14.35,13.69,0,9.64-6.47,13.53-14.76,13.53H169ZM177.45,127h2.87c4.59,0,6.43-2.14,6.43-8v-.16c0-5.91-1.8-8-6.35-8h-3Z" transform="translate(-1.03 -6.31)"/><path class="cls-1" d="M196.67,123c0-6.27,4.06-10.33,10.62-10.33s10.38,3.89,10.38,10.57v1.28H204a3.48,3.48,0,0,0,3.86,3.48,3.56,3.56,0,0,0,3.77-2.5l5.9,1.35c-1.31,4.14-4.26,6.19-10.12,6.19C200.61,133,196.67,129.23,196.67,123Zm7.3-2.09h6.36c-.13-2.3-1.07-3.45-3-3.45S204.18,118.65,204,120.87Z" transform="translate(-1.03 -6.31)"/><path class="cls-1" d="M227.55,124.56l3.36-11.4h6.35l-7.21,19.52h-6.81l-7.38-19.52h8Z" transform="translate(-1.03 -6.31)"/><path class="cls-1" d="M236.48,123c0-6.27,4.06-10.33,10.62-10.33s10.38,3.89,10.38,10.57v1.28H243.82a3.48,3.48,0,0,0,3.86,3.48,3.56,3.56,0,0,0,3.77-2.5l5.9,1.35C256,131,253.09,133,247.23,133,240.42,133,236.48,129.23,236.48,123Zm7.3-2.09h6.36c-.13-2.3-1.07-3.45-3-3.45S244,118.65,243.78,120.87Z" transform="translate(-1.03 -6.31)"/><path class="cls-1" d="M266.82,132.51h-7.74V105.12h7.74Z" transform="translate(-1.03 -6.31)"/><path class="cls-1" d="M268.38,122.84c0-6.2,4.18-10.17,11.2-10.17s11.07,3.93,11.07,10.17S286.46,133,279.41,133,268.38,129.11,268.38,122.84Zm14.35.2v-.37c0-3.44-1.11-5-3.24-5s-3.2,1.52-3.2,5V123c0,3.44,1.07,4.92,3.2,4.92S282.73,126.44,282.73,123Z" transform="translate(-1.03 -6.31)"/><path class="cls-1" d="M300,130.17v9.64h-7.74V113.16H300v2.38a6.66,6.66,0,0,1,5.74-2.91c5,0,8.53,4.1,8.53,10.12v0c0,6.11-3.48,10.25-8.57,10.25A7,7,0,0,1,300,130.17Zm6.15-7.09v-.57c0-3.32-1.1-4.59-3.11-4.59-2.22,0-3.12,1.68-3.12,4.38v1.15c0,2.67.86,4.31,3.12,4.31C305,127.76,306.18,126.36,306.18,123.08Z" transform="translate(-1.03 -6.31)"/><path class="cls-1" d="M323.61,116.28a6,6,0,0,1,5.86-3.65c2.95,0,4.8,1.27,5.58,4,.9-2.46,3-4,6.52-4,4.1,0,6.43,2.62,6.43,8.07v11.81h-7.75v-11c0-2.13-.65-3.11-2.13-3.11-1.76,0-2.29,1.14-2.29,3.6v10.54h-7.71V121.4c0-2.05-.66-3-2.13-3s-2.3,1.06-2.3,3.6v10.54h-7.75V113.16h7.67Z" transform="translate(-1.03 -6.31)"/><path class="cls-1" d="M349.28,123c0-6.27,4.05-10.33,10.61-10.33s10.38,3.89,10.38,10.57v1.28H356.61a3.48,3.48,0,0,0,3.86,3.48,3.56,3.56,0,0,0,3.77-2.5l5.9,1.35C368.83,131,365.88,133,360,133,353.21,133,349.28,129.23,349.28,123Zm7.29-2.09h6.36c-.12-2.3-1.07-3.45-3-3.45S356.78,118.65,356.57,120.87Z" transform="translate(-1.03 -6.31)"/><path class="cls-1" d="M379.41,116a6.22,6.22,0,0,1,5.86-3.4c4.23,0,6.77,2.78,6.77,8.11v11.77h-7.75V121.36c0-2-.66-3-2.3-3s-2.5,1.31-2.5,3.6v10.54h-7.75V113.16h7.67Z" transform="translate(-1.03 -6.31)"/><path class="cls-1" d="M400.11,132.51c-4.3-.33-5.08-2.34-5.12-6.11v-8.48h-2.34v-4.76H395v-3.9l7.63-3.32v7.22h3v4.76h-3.16v8.52a1,1,0,0,0,1.11,1.07h2v5Z" transform="translate(-1.03 -6.31)"/><path class="cls-1" d="M415.16,132.51h-7.79v-7.58h7.79Z" transform="translate(-1.03 -6.31)"/><path class="cls-1" d="M1,168.14c0-8.69,5.57-14.23,13.85-14.23,7.26,0,11.73,4,12.71,10.83H20.38c-.58-2.79-2.38-4.43-5.25-4.43-3.69,0-5.41,2.46-5.41,7.38v.82c0,4.92,1.68,7.38,5.25,7.38,3.07,0,4.92-1.48,5.41-5.13h7.38c-.54,8.08-5.78,11.53-13,11.53C6.44,182.29,1,176.79,1,168.14Z" transform="translate(-1.03 -6.31)"/><path class="cls-1" d="M28.74,172c0-6.2,4.18-10.17,11.19-10.17S51,165.8,51,172,46.82,182.2,39.77,182.2,28.74,178.31,28.74,172Zm14.35.2v-.37c0-3.44-1.11-5-3.24-5s-3.2,1.52-3.2,5v.37c0,3.44,1.07,4.92,3.2,4.92S43.09,175.64,43.09,172.24Z" transform="translate(-1.03 -6.31)"/><path class="cls-1" d="M60.31,165.23a6.23,6.23,0,0,1,5.86-3.4c4.23,0,6.77,2.78,6.77,8.11v11.77H65.19V170.56c0-2-.66-3-2.3-3s-2.5,1.31-2.5,3.6v10.54H52.64V162.36h7.67Z" transform="translate(-1.03 -6.31)"/><path class="cls-1" d="M81,181.71c-4.3-.33-5.08-2.34-5.12-6.11v-8.48H73.55v-4.76h2.34v-3.9l7.63-3.32v7.22h3v4.76H83.39v8.52a1,1,0,0,0,1.11,1.07h2v5Z" transform="translate(-1.03 -6.31)"/><path class="cls-1" d="M96,165.64c.7-2.13,2.34-3.36,5.37-3.36h.53V169H99.22C96.64,169,96,170,96,172.32v9.39H88.19V162.36H96Z" transform="translate(-1.03 -6.31)"/><path class="cls-1" d="M102.5,176.63c0-4.23,3.77-5.25,7.5-6,3-.57,5.13-.65,5.29-1.64v-.12c0-1.23-.78-1.89-2.34-1.89-1.76,0-2.66.82-2.74,2.22v.32H103c.08-4.67,3.65-7.66,10.05-7.66,6.56,0,9.88,2.5,9.88,8.53v11.31h-7.67V179a6.66,6.66,0,0,1-6.11,3.28C105.08,182.29,102.5,180.11,102.5,176.63ZM115.29,175v-2.34a17.93,17.93,0,0,1-2.46.74c-1.43.41-2.62.9-2.62,2.46a1.76,1.76,0,0,0,2,1.8A2.9,2.9,0,0,0,115.29,175Z" transform="translate(-1.03 -6.31)"/><path class="cls-1" d="M124.23,172c0-6.19,4.18-10.08,10.86-10.08,5.95,0,8.7,2.54,9.93,6.68l-6.89,1.6c-.29-1.52-1-3-2.83-3-2.09,0-3.12,1.6-3.12,4.71v.33c0,3.16.9,4.71,3,4.71,1.84,0,2.78-1.18,3-3.11l6.93,1.27c-1,4.39-3.94,7.13-10.05,7.13C128.16,182.2,124.23,178.43,124.23,172Z" transform="translate(-1.03 -6.31)"/><path class="cls-1" d="M152.56,181.71c-4.31-.33-5.08-2.34-5.13-6.11v-8.48H145.1v-4.76h2.33v-3.9l7.63-3.32v7.22h3v4.76h-3.15v8.52a1,1,0,0,0,1.1,1.07h2v5Z" transform="translate(-1.03 -6.31)"/><path class="cls-1" d="M167.61,160.31h-7.83v-5.78h7.83Zm0,21.4h-7.71V162.36h7.71Z" transform="translate(-1.03 -6.31)"/><path class="cls-1" d="M177.61,165.23a6.23,6.23,0,0,1,5.86-3.4c4.23,0,6.77,2.78,6.77,8.11v11.77h-7.75V170.56c0-2-.66-3-2.3-3s-2.5,1.31-2.5,3.6v10.54h-7.75V162.36h7.67Z" transform="translate(-1.03 -6.31)"/><path class="cls-1" d="M198,175.68c-.74.17-1.15.5-1.15.95,0,.61.74.94,2.17.94h5.7c5.78,0,8.9,2.13,8.9,6.07,0,4.67-3.86,7.05-11.65,7.05-7.54,0-11-1.52-11-4.88,0-1.93,1.19-3.28,3.65-4-1.92-.49-3-1.68-3-3.4s1.23-3,3.45-3.85A6.19,6.19,0,0,1,192,169c0-4.18,4-7.25,9.72-7.25,3.69,0,6.56,1.31,8.11,3.44a3.87,3.87,0,0,1,3.82-2.87v5.94a2.71,2.71,0,0,0-2.67.13,2.55,2.55,0,0,1,0,.53c0,4.39-3.65,7.09-9.59,7.09A14.4,14.4,0,0,1,198,175.68Zm1.64,8c-1.89.16-3,.7-3,1.6,0,1.06,1.52,1.64,5.41,1.64s5.62-.58,5.62-1.72-1-1.52-4.14-1.52Zm4.59-14.56v-.24a2.65,2.65,0,1,0-5.29,0v.24a2.41,2.41,0,0,0,2.58,2.71A2.44,2.44,0,0,0,204.22,169.08Z" transform="translate(-1.03 -6.31)"/><path class="cls-1" d="M221.48,154.49h8.08l3.64,16,4.39-16h7.18l4.42,15.95,3.65-15.95h6.73l-7.46,27.22H245.3l-4.76-16.56-4.63,16.56h-7Z" transform="translate(-1.03 -6.31)"/><path class="cls-1" d="M257.8,172c0-6.2,4.19-10.17,11.2-10.17s11.07,3.93,11.07,10.17-4.19,10.16-11.24,10.16S257.8,178.31,257.8,172Zm14.35.2v-.37c0-3.44-1.1-5-3.23-5s-3.2,1.52-3.2,5v.37c0,3.44,1.06,4.92,3.2,4.92S272.15,175.64,272.15,172.24Z" transform="translate(-1.03 -6.31)"/><path class="cls-1" d="M289.5,165.64c.69-2.13,2.33-3.36,5.37-3.36h.53V169h-2.66c-2.59,0-3.24,1.07-3.24,3.36v9.39h-7.79V162.36h7.79Z" transform="translate(-1.03 -6.31)"/><path class="cls-1" d="M304.58,169.82l5.38-7.46H318l-6.27,7.17,6.44,12.18h-8l-3.69-7.09-2,2.34v4.75H297V154.32h7.62Z" transform="translate(-1.03 -6.31)"/><path class="cls-1" d="M327,181.71h-7.79v-7.58H327Z" transform="translate(-1.03 -6.31)"/></g></g></svg>