<svg xmlns="http://www.w3.org/2000/svg" viewBox="0 0 162.42 106.21"><defs><style>.cls-1{fill:#808792;}.cls-2{fill:#f2f2f2;}</style></defs><title>N Lower</title><g id="Layer_2" data-name="Layer 2"><g id="N_Lower" data-name="N Lower"><g id="N_Lower-2" data-name="N Lower"><path class="cls-1" d="M112.57,56.19,65.09,28.78a4.92,4.92,0,0,0-.61-.29L64,28.32l-.27-.07h-.06l-.12,0-.43-.08-.42,0-.42,0H62a1.77,1.77,0,0,0-.23,0,3.87,3.87,0,0,0-.48,0,5.21,5.21,0,0,0-.55.08l-.22.05-.21.05-.38.1a4.49,4.49,0,0,0-.92.4l-9.17,5.33,0,0a2,2,0,0,0-.23.17,2.92,2.92,0,0,0-.28.21l0,0a3.5,3.5,0,0,0-.27.28s0,0,0,.08l0,.07a.44.44,0,0,0-.08.11,2.56,2.56,0,0,0-.11.24.08.08,0,0,0,0,0s0,0,0,0,0,.1,0,.16a1,1,0,0,0,0,.24v0l0,12.4a1.78,1.78,0,0,1,.08-.44s0,0,0,0a2.14,2.14,0,0,1,.2-.4l0-.07a3,3,0,0,1,.34-.38c.08-.07.19-.14.29-.21a2.69,2.69,0,0,1,.27-.2L59,41.19a5,5,0,0,1,1.31-.51l.2,0A7.29,7.29,0,0,1,62,40.47h.06a7.31,7.31,0,0,1,1.56.17l.06,0a5,5,0,0,1,1.38.53L112.53,68.6a2.13,2.13,0,0,1,1.26,1.76l0-12.4A2.14,2.14,0,0,0,112.57,56.19Z"/><path class="cls-2" d="M158.42,90.63c-.22.14-.44.28-.67.41s-.54.31-.79.44-.51.24-.76.36a9.57,9.57,0,0,1-.91.38c-.27.1-.52.21-.8.3l-1,.31a16.66,16.66,0,0,1-1.94.47l-1,.18c-.33.06-.68.1-1,.15s-.69.07-1,.09-.73.06-1.08.07l-1.08,0a11,11,0,0,1-1.15,0c-.27,0-.54,0-.82,0-.45,0-.86-.06-1.29-.12s-.7-.09-1.06-.15a21.26,21.26,0,0,1-7.11-2.39L4.83,16C-1.52,12.32-1.56,6.4,4.74,2.74s16.52-3.66,22.88,0l130,75.08c.25.14.47.3.71.45s.42.29.62.43.46.35.67.52.37.35.54.53a6.44,6.44,0,0,1,.52.53c.18.21.34.42.5.64a7.78,7.78,0,0,1,.62,1.07l.26.6a4.16,4.16,0,0,1,.18.67,3.29,3.29,0,0,1,.1.53,4.64,4.64,0,0,1,0,1.29c0,.18-.07.36-.09.55-.09.34-.15.51-.21.69a5,5,0,0,1-.26.64,5.46,5.46,0,0,1-.3.59,3.93,3.93,0,0,1-.41.57,3.71,3.71,0,0,1-.42.54,5,5,0,0,1-.49.54,8.69,8.69,0,0,1-1.15,1C158.84,90.33,158.65,90.48,158.42,90.63Zm-55-25.6,9.17-5.33c1.65-1,1.64-2.54,0-3.51L65.09,28.78a6.71,6.71,0,0,0-6.05,0l-9.17,5.33c-1.67,1-1.65,2.55,0,3.51L97.37,65a6.68,6.68,0,0,0,6,0Zm35.23,23.83a16.8,16.8,0,0,0,15.25,0c4.2-2.44,4.17-6.4-.05-8.83a16.8,16.8,0,0,0-15.25,0c-4.19,2.44-4.17,6.4.05,8.83ZM8.6,13.78a16.8,16.8,0,0,0,15.25,0C28.05,11.34,28,7.39,23.8,5A16.8,16.8,0,0,0,8.55,5c-4.2,2.44-4.16,6.4,0,8.83Z"/><path class="cls-1" d="M162.38,85.08c0,.17-.07.36-.09.55-.1.34-.15.52-.21.69a6.14,6.14,0,0,1-.27.64c-.07.19-.19.4-.28.59s-.27.4-.42.57a4.57,4.57,0,0,1-.42.54,6.06,6.06,0,0,1-.49.55,12.56,12.56,0,0,1-1.14,1l-.65.45c-.21.14-.42.29-.65.42l-.8.42c-.24.13-.51.25-.76.36s-.59.27-.91.4l-.8.29c-.4.13-.7.23-1,.32a15.74,15.74,0,0,1-1.94.46l-1,.19-1,.13c-.34,0-.69.08-1.05.1l-1.06.07-1.09,0a10.67,10.67,0,0,1-1.14,0c-.28,0-.55,0-.83,0-.44,0-.86-.07-1.3-.11l-1-.15c-.54-.1-1-.21-1.54-.33-.31,0-.59-.13-.86-.2l-.91-.27c-.36-.1-.71-.23-1-.34l-.7-.27a19.64,19.64,0,0,1-2.06-1L14.36,21.48,4.83,16C1.64,14.14,0,11.72,0,9.31l0,12.4c0,2.41,1.6,4.83,4.79,6.68l9.57,5.51,120.47,69.57a21.57,21.57,0,0,0,2,1,2.18,2.18,0,0,0,.27.11c.13.06.28.1.43.16.35.11.69.24,1,.36l.44.13a4.05,4.05,0,0,0,.47.12c.29.07.57.15.86.2l.49.14,1.05.19.61.09.43.06c.29,0,.56.06.82.08l.48,0c.28,0,.55,0,.83,0h.06l.48,0h.61c.32,0,.62,0,.93,0h.28l.93-.06.59,0,.46-.06,1-.13h.06l.61-.12a3.52,3.52,0,0,0,.41-.07h0a16.63,16.63,0,0,0,1.91-.46c.32-.09.62-.19,1-.32l.8-.29a9.58,9.58,0,0,0,.91-.4l.76-.34.8-.44s.1,0,.16-.09.34-.21.51-.33.42-.3.63-.45a7.87,7.87,0,0,0,.87-.71,3.38,3.38,0,0,0,.27-.26,4.2,4.2,0,0,0,.49-.55,1.69,1.69,0,0,0,.19-.19l.23-.35a.35.35,0,0,0,.1-.11c.11-.13.21-.3.32-.46s0,0,0,0l.28-.56c.06-.15.14-.3.19-.47l.06-.17a5.54,5.54,0,0,0,.21-.69c0-.19.08-.36.1-.55s0-.32,0-.49v-.12l0-12.4C162.42,84.66,162.4,84.87,162.38,85.08Z"/><path class="cls-1" d="M138.64,88.86a16.8,16.8,0,0,0,15.25,0c4.19-2.44,4.16-6.4,0-8.83s-11.06-2.44-15.25,0-4.18,6.4,0,8.83"/><path class="cls-1" d="M8.61,13.78a16.8,16.8,0,0,0,15.25,0c4.2-2.44,4.16-6.4-.05-8.83A16.8,16.8,0,0,0,8.56,5c-4.2,2.44-4.18,6.39,0,8.83"/></g></g></g></svg>