<svg xmlns="http://www.w3.org/2000/svg" viewBox="0 0 229.13 31.37"><defs><style>.cls-1{fill:#f2f2f2;}.cls-2{fill:#808792;}</style></defs><title>N Middle</title><g id="Layer_2" data-name="Layer 2"><g id="N_Middle" data-name="N Middle"><g id="N_Middle-2" data-name="N Middle"><path class="cls-1" d="M229.13,9.61c0,5.17-7.22,9.36-16.14,9.35L16.23,18.73a25.58,25.58,0,0,1-7.55-1.1A19.26,19.26,0,0,1,4.81,16C1.87,14.28.05,11.94,0,9.35,0,4.17,7.26,0,16.19,0L212.94.24A23.29,23.29,0,0,1,224.37,3C227.31,4.68,229.13,7,229.13,9.61ZM11.18,14.88c5.26,1.62,11.79.47,14.57-2.58C28,9.82,27.09,6.84,23.81,5a12.28,12.28,0,0,0-2.58-1.1C16,2.24,9.44,3.39,6.66,6.44c-2.25,2.48-1.32,5.45,2,7.35a12.09,12.09,0,0,0,2.56,1.09Zm196.75.23c5.28,1.62,11.81.45,14.59-2.58,2.26-2.49,1.33-5.46-1.94-7.35A12.52,12.52,0,0,0,218,4.08c-5.26-1.63-11.79-.46-14.56,2.58-2.27,2.48-1.34,5.46,1.94,7.35a12.23,12.23,0,0,0,2.55,1.1Zm-102.36-.36c5.28,1.62,11.79.46,14.58-2.58,2.26-2.48,1.33-5.46-1.94-7.35a12.42,12.42,0,0,0-2.57-1.1c-5.27-1.62-11.79-.46-14.58,2.58-2.26,2.49-1.32,5.46,2,7.36a13.14,13.14,0,0,0,2.56,1.09Z"/><path class="cls-2" d="M229.08,10.21a3.15,3.15,0,0,1-.05.43,4.6,4.6,0,0,1-.13.5c0,.14-.07.28-.12.42s-.12.28-.18.42-.14.32-.23.48-.14.21-.2.32-.26.41-.41.6-.16.2-.24.3a9.1,9.1,0,0,1-.68.72l-.3.3c-.17.15-.35.29-.54.44l-.41.32-.63.42-.42.27c-.48.28-1,.55-1.54.8l-.38.16q-.75.33-1.56.6l-.24.08a23.87,23.87,0,0,1-3,.74h0c-.6.11-1.23.19-1.86.26l-.67.06-1,.07c-.43,0-.86,0-1.3,0L16.23,18.73c-.56,0-1.1,0-1.65-.06l-.48,0c-.6-.05-1.19-.11-1.77-.19L12,18.38q-.67-.11-1.32-.24L9.88,18c-.41-.1-.82-.2-1.2-.32A17.64,17.64,0,0,1,7,17a17.65,17.65,0,0,1-2.14-1C1.87,14.28.05,11.94,0,9.35l0,12.4c0,2.59,1.84,4.93,4.78,6.63a17,17,0,0,0,2.14,1l.21.1c.49.19,1,.36,1.51.53l.5.14c.23.07.47.12.7.18l.75.18.22.05c.36.08.73.14,1.11.2l.38.06h.07c.5.07,1,.13,1.54.18h.16c.15,0,.32,0,.48,0l.94.05h.71L213,31.37l1,0,.31,0,1-.07c.15,0,.32,0,.47,0l.2,0c.63-.06,1.25-.15,1.85-.26h0a23.87,23.87,0,0,0,3-.74l.06,0,.18-.07c.55-.18,1.07-.38,1.57-.6l.37-.16c.55-.25,1.06-.52,1.55-.8l.08-.05.34-.22c.21-.14.42-.27.62-.42s.28-.21.42-.32l.53-.44.15-.12c.06-.06.1-.12.16-.17.24-.24.47-.48.68-.73l.16-.18a1,1,0,0,1,.08-.11,5.81,5.81,0,0,0,.4-.61,2.2,2.2,0,0,0,.17-.25s0,0,0-.06a5.4,5.4,0,0,0,.23-.49c.05-.12.12-.23.17-.36s0,0,0-.06.08-.28.12-.42.09-.28.12-.42a.22.22,0,0,1,0-.08c0-.14,0-.28.05-.43s0-.28,0-.42a1.09,1.09,0,0,0,0-.18l0-12.4C229.13,9.81,229.1,10,229.08,10.21Z"/><path class="cls-2" d="M25.75,12.28c-1.59,1.77-4.46,2.89-7.62,3.19a16.17,16.17,0,0,1-3.81,0,16.38,16.38,0,0,1-3.13-.63,11.9,11.9,0,0,1-2.57-1.1c-3.27-1.88-4.2-4.87-1.94-7.34,1.62-1.79,4.49-2.91,7.64-3.23a18.67,18.67,0,0,1,3.81,0,17.24,17.24,0,0,1,3.12.62,12.32,12.32,0,0,1,2.56,1.09C27.11,6.82,28,9.79,25.75,12.28Z"/><path class="cls-2" d="M105.58,14.75c5.26,1.62,11.79.47,14.57-2.58,2.25-2.48,1.34-5.46-1.94-7.35a12.28,12.28,0,0,0-2.58-1.1c-5.26-1.61-11.79-.46-14.57,2.59-2.25,2.48-1.32,5.45,2,7.35a12.09,12.09,0,0,0,2.56,1.09"/><path class="cls-2" d="M208,15.11c5.26,1.61,11.79.46,14.57-2.59,2.25-2.48,1.33-5.46-1.94-7.35A12.52,12.52,0,0,0,218,4.07c-5.26-1.61-11.79-.46-14.57,2.59-2.26,2.48-1.33,5.46,1.95,7.35a12.42,12.42,0,0,0,2.57,1.1"/></g></g></g></svg>