<svg xmlns="http://www.w3.org/2000/svg" viewBox="0 0 162.41 106.21"><defs><style>.cls-1{fill:#808792;}.cls-2{fill:#f2f2f2;}</style></defs><title>N Upper</title><g id="Layer_2" data-name="Layer 2"><g id="N_Top" data-name="N Top"><g id="N_Upper" data-name="N Upper"><path class="cls-1" d="M112.56,56.19,65.08,28.78a3.7,3.7,0,0,0-.6-.29,4.56,4.56,0,0,0-.52-.18l-.26-.06h-.06l-.12,0-.43-.08-.42-.05-.43,0H61.8l-.48,0a4.86,4.86,0,0,0-.55.07l-.23.06-.2.05c-.13,0-.26,0-.38.09a4.93,4.93,0,0,0-.93.41l-9.17,5.33,0,0-.22.16a3.15,3.15,0,0,0-.29.22l0,0a3.45,3.45,0,0,0-.26.28l0,.07-.05.07-.07.12a1.34,1.34,0,0,0-.12.24.06.06,0,0,1,0,0s0,0,0,0a.88.88,0,0,0-.05.15,2.11,2.11,0,0,0,0,.25v0h0l0,12.4a1.68,1.68,0,0,1,.07-.44l0-.05a1.5,1.5,0,0,1,.2-.4l0-.07a1.94,1.94,0,0,1,.34-.37c.08-.08.19-.14.29-.22s.17-.13.27-.19L59,41.18a5.17,5.17,0,0,1,1.3-.5l.21,0A7.89,7.89,0,0,1,62,40.46h.06a7.15,7.15,0,0,1,1.55.18h.06a5.35,5.35,0,0,1,1.39.53l47.48,27.41a4.09,4.09,0,0,1,.55.39,1.86,1.86,0,0,1,.7,1.38l0-12.4A2.14,2.14,0,0,0,112.56,56.19Z"/><path class="cls-1" d="M162.41,84.52h0a5.66,5.66,0,0,1,0,.57c0,.18-.07.36-.09.54s0,.14-.06.21-.07.25-.1.35,0,.09,0,.14c-.07.22-.17.43-.26.64s-.19.39-.3.58h0l-.07.1a5.66,5.66,0,0,1-.34.47h0a4.63,4.63,0,0,1-.43.54c-.11.13-.22.24-.33.36l-.16.18h0a9.34,9.34,0,0,1-1.14,1c-.22.16-.41.31-.64.46s-.43.28-.66.41h0l-.8.44-.76.35-.45.2-.45.19c-.27.1-.52.2-.8.29l-.36.12-.67.2a19,19,0,0,1-1.94.47h0l-1,.17-.51.08-.52.07h0c-.34,0-.69.08-1,.1h0c-.36,0-.72.06-1.07.06s-.72,0-1.08,0-.78,0-1.15,0l-.82,0c-.45,0-.88-.06-1.3-.12s-.69-.09-1.05-.15c-.54-.09-1-.2-1.55-.32-.29-.06-.57-.13-.85-.21l-.9-.26-1.06-.35-.69-.27a17.83,17.83,0,0,1-2.06-1h0L4.82,16a10.89,10.89,0,0,1-3.59-3.12A7.12,7.12,0,0,1,.7,12,5.84,5.84,0,0,1,0,9.31H0l0,12.4a5.49,5.49,0,0,0,.07.91c.35,2.1,1.92,4.15,4.72,5.77h0l130,75.08a17.64,17.64,0,0,0,2,1c.09,0,.17.09.26.12s.29.1.44.15q.51.19,1,.36l.44.14c.15,0,.31.08.46.12l.86.21c.17,0,.32.08.49.12l1.05.19h0l.61.1.45.05h.06c.22,0,.44.06.67.07l.56,0,.82,0h0a11,11,0,0,0,1.15,0l1.08,0h.13l.95-.06.58,0,.46-.06,1-.14.73-.13.27,0h0c.34-.06.65-.16,1-.23s.67-.14,1-.24l.48-.14.54-.17c.28-.09.53-.2.8-.3a9.57,9.57,0,0,0,.91-.38c.25-.12.52-.23.76-.36s.52-.27.79-.44l.15-.08.5-.32h0c.23-.15.42-.3.64-.46h0a7.68,7.68,0,0,0,.86-.7l.28-.27c.17-.18.32-.34.48-.53h0c.07-.08.14-.15.2-.23s.16-.21.23-.32h0l0,0,.36-.5,0,0h0l0,0c.1-.18.2-.37.28-.55l.21-.48a.75.75,0,0,0,0-.16h0c0-.09.06-.17.09-.28s.07-.24.12-.42.07-.36.09-.54l0-.43v-.14l0-12.4Z"/><path class="cls-2" d="M158.41,90.63c-.22.14-.43.28-.66.41l-.8.44-.76.35c-.29.14-.58.27-.9.39s-.52.2-.8.29-.7.23-1,.32a19,19,0,0,1-1.94.47l-1,.17c-.34.06-.69.11-1,.15s-.69.08-1,.1-.72.06-1.07.06-.72,0-1.08,0-.78,0-1.15,0l-.82,0c-.45,0-.88-.06-1.3-.12s-.69-.09-1.05-.15a21,21,0,0,1-7.11-2.4L4.82,16C-1.53,12.32-1.56,6.4,4.73,2.74s16.52-3.66,22.87,0l130,75.08c.24.14.47.28.71.44s.42.28.62.43.47.35.67.52.38.34.55.53a4.21,4.21,0,0,1,.5.54,5.2,5.2,0,0,1,.51.63,9,9,0,0,1,.61,1.06,6.65,6.65,0,0,1,.27.61,4.41,4.41,0,0,1,.19.66,3.4,3.4,0,0,1,.08.53,4.72,4.72,0,0,1,0,1.3c0,.18-.07.36-.09.54-.08.35-.15.53-.2.7s-.17.43-.26.64-.2.39-.3.58-.27.4-.41.58a3.78,3.78,0,0,1-.43.54c-.16.19-.32.36-.49.54a9.34,9.34,0,0,1-1.14,1C158.83,90.33,158.64,90.48,158.41,90.63ZM103.41,65l9.17-5.32c1.66-1,1.65-2.55,0-3.51L65.08,28.78a6.71,6.71,0,0,0-6,0l-9.17,5.33c-1.66,1-1.64,2.54,0,3.5L97.36,65a6.65,6.65,0,0,0,6,0"/><path class="cls-1" d="M8.6,13.78a16.8,16.8,0,0,0,15.25,0c4.2-2.44,4.17-6.4-.05-8.84s-11-2.44-15.25,0-4.17,6.4,0,8.84"/><path class="cls-1" d="M138.45,88.69c4.23,2.44,11.06,2.44,15.25,0s4.18-6.4,0-8.84a16.83,16.83,0,0,0-15.25,0c-4.19,2.44-4.16,6.4,0,8.84"/></g></g></g></svg>