<svg xmlns="http://www.w3.org/2000/svg" viewBox="0 0 230.8 145.95"><defs><style>.cls-1{fill:#808792;}.cls-2{fill:#f2f2f2;}</style></defs><title>S</title><g id="Layer_2" data-name="Layer 2"><g id="S"><g id="S-2" data-name="S"><path class="cls-1" d="M96.07,16l-57,33.13,0,12.4L96,28.39c3.12-1.82,4.69-4.19,4.69-6.57l0-12.41C100.75,11.79,99.19,14.17,96.07,16Z"/><path class="cls-1" d="M196.23,65,167.89,48.66a3.81,3.81,0,0,0-.61-.29,4,4,0,0,0-.52-.18l-.25-.06h-.06l-.13,0-.43-.07-.42,0-.42,0h-.44l-.48,0-.55.08a1.41,1.41,0,0,0-.22.06l-.21,0c-.12,0-.26.05-.38.09a5.23,5.23,0,0,0-.93.41L152.68,54l-.05,0c-.08.05-.14.11-.21.16a3.3,3.3,0,0,0-.3.22l0,0a3.5,3.5,0,0,0-.27.28l-.05.07s0,.05,0,.08a.44.44,0,0,0-.08.11c0,.08-.08.16-.12.24s0,0,0,0a.43.43,0,0,1,0,.05.75.75,0,0,0,0,.16,1,1,0,0,0,0,.24v0l0,12.4a1.61,1.61,0,0,1,.07-.43s0,0,0,0a1.36,1.36,0,0,1,.2-.4l.05-.07a2,2,0,0,1,.34-.38c.08-.07.19-.14.29-.21a2.69,2.69,0,0,1,.27-.2l9.16-5.32a5.1,5.1,0,0,1,1.31-.5l.2-.05a6.65,6.65,0,0,1,1.48-.17h.06a7.15,7.15,0,0,1,1.55.18h.06a5.35,5.35,0,0,1,1.39.53L196.2,77.43a2.5,2.5,0,0,1,1.19,1.29,1.61,1.61,0,0,1,.08.48l0-12.4A2.14,2.14,0,0,0,196.23,65Z"/><path class="cls-1" d="M68.56,70.54,40.22,54.18a5.82,5.82,0,0,0-1.12-.47l-.27-.06,0,0-.13,0-.42-.07-.43-.05-.42,0h-.45l-.48,0-.55.08-.22.06-.21,0c-.12,0-.26,0-.38.09a4.51,4.51,0,0,0-.92.41L25,59.51l-.05,0c-.09.05-.15.11-.23.16l-.28.21,0,0a3.5,3.5,0,0,0-.27.28l0,.08-.05.07-.07.11a1.92,1.92,0,0,0-.12.25.08.08,0,0,1,0,0,.43.43,0,0,0,0,.05.88.88,0,0,0-.05.15,2.11,2.11,0,0,0,0,.25v0l0,12.4a1.62,1.62,0,0,1,.07-.44l0,0a1.36,1.36,0,0,1,.2-.4l.05-.07a2,2,0,0,1,.34-.38,3.39,3.39,0,0,1,.28-.2,2.69,2.69,0,0,1,.27-.2l9.17-5.33a5.39,5.39,0,0,1,1.31-.5l.2,0a8.09,8.09,0,0,1,1.49-.17h0a7.31,7.31,0,0,1,1.56.18h.06a5.28,5.28,0,0,1,1.38.53L68.53,82.94a2.17,2.17,0,0,1,1.26,1.78l0-12.4A2.15,2.15,0,0,0,68.56,70.54Z"/><path class="cls-1" d="M145.86,57.94l-57,33.12a17.27,17.27,0,0,1-2.25,1.07l-.63.24c-.49.17-1,.32-1.51.46s-1.07.29-1.62.4-1.3.26-2,.34l-.47.07c-.9.09-1.81.14-2.72.15h-.44c-.89,0-1.79-.06-2.68-.15l-.4,0c-.88-.11-1.75-.26-2.6-.45L71.1,93a22.43,22.43,0,0,1-2.24-.68l-.4-.14A17.91,17.91,0,0,1,66,91.06L4.8,55.73C1.62,53.89,0,51.47,0,49.06L0,61.47c0,2.41,1.58,4.82,4.77,6.66L66,103.46a17.15,17.15,0,0,0,2.32,1.12l.14,0,.4.13c.47.17.93.34,1.43.48.26.08.54.13.81.2l.46.11.41.11c.53.1,1.06.2,1.6.27l.59.07.4,0,.59.07c.52,0,1.06.07,1.59.08.17,0,.33,0,.5,0h.43c.24,0,.49,0,.73,0,.6,0,1.2-.06,1.79-.12l.2,0,.48-.07c.46-.06.93-.11,1.38-.19l.58-.14c.56-.12,1.09-.26,1.62-.41.29-.08.59-.12.86-.21s.44-.17.66-.25.42-.15.62-.24a16.19,16.19,0,0,0,2.26-1.07l57-33.12,45.91,26.51,0-12.41Z"/><path class="cls-1" d="M200.26,98.15,191,92.83a5.76,5.76,0,0,0-.61-.3l-.52-.17-.26-.07h-.06l-.13,0-.43-.08-.42,0-.42,0a.85.85,0,0,1-.16,0H188a1.77,1.77,0,0,0-.23,0,3.87,3.87,0,0,0-.48,0l-.55.07a2,2,0,0,1-.23.06l-.2,0-.38.1a4.37,4.37,0,0,0-.93.41l-28.16,16.36-.05,0a2.09,2.09,0,0,0-.22.16,2.21,2.21,0,0,0-.29.22l0,0a3.5,3.5,0,0,0-.27.28.43.43,0,0,1,0,.07l0,.07-.08.12a2.56,2.56,0,0,0-.11.24.06.06,0,0,0,0,0l0,0c0,.05,0,.1,0,.15a1.13,1.13,0,0,0,0,.25v0l0,12.4a1.35,1.35,0,0,1,.07-.44.43.43,0,0,0,0,0,2.4,2.4,0,0,1,.2-.39l.05-.07a3,3,0,0,1,.34-.38c.08-.07.19-.14.29-.21a2.69,2.69,0,0,1,.27-.2l28.16-16.36a5.39,5.39,0,0,1,1.31-.5l.21-.06a7.29,7.29,0,0,1,1.48-.16H188a7.31,7.31,0,0,1,1.56.17l.06,0a5.08,5.08,0,0,1,1.4.53l9.21,5.32a2.16,2.16,0,0,1,1.26,1.76l0-12.4A2.1,2.1,0,0,0,200.26,98.15Z"/><path class="cls-1" d="M230.76,85c0,.17,0,.34-.06.51s-.07.28-.1.42a4.34,4.34,0,0,1-.14.48c-.05.13-.11.26-.17.39a4.52,4.52,0,0,1-.23.5c-.07.13-.15.25-.22.37s-.24.37-.38.56l-.26.33a9.36,9.36,0,0,1-.69.73c-.09.09-.17.18-.26.26l-.5.41-.45.36c-.18.13-.38.26-.58.38s-.39.27-.61.4L157.7,130.81a17.27,17.27,0,0,1-2.25,1.07l-.63.24c-.49.18-1,.32-1.51.46s-1.07.29-1.62.4-1.3.26-2,.34l-.48.07c-.9.09-1.81.14-2.72.15h-.43c-.9,0-1.8-.06-2.69-.15l-.4,0c-.88-.11-1.75-.26-2.6-.45l-.46-.11a23.25,23.25,0,0,1-2.24-.68l-.4-.14a17.91,17.91,0,0,1-2.46-1.16,10.2,10.2,0,0,1-4.11-4,5.8,5.8,0,0,1-.66-2.68h0l0,12.4c0,2.41,1.59,4.83,4.78,6.68a17.7,17.7,0,0,0,2.32,1.11l.14,0,.4.13c.47.17.94.34,1.43.48.26.08.54.14.81.2l.46.11.41.11c.53.11,1.06.2,1.6.27l.59.07.4,0,.59.07q.79.06,1.59.09h1.66c.6,0,1.2-.06,1.79-.12l.2,0,.48-.07c.46-.05.93-.11,1.38-.19.2,0,.39-.1.58-.14.56-.12,1.09-.26,1.62-.41.29-.08.59-.12.86-.21s.44-.17.66-.25.42-.15.63-.24a16.62,16.62,0,0,0,2.25-1.07l68.4-39.75.2-.11c.15-.09.28-.19.42-.28l.57-.39a5.63,5.63,0,0,0,.46-.36c.17-.13.34-.26.49-.4l.1-.09a1.45,1.45,0,0,0,.17-.18,7.65,7.65,0,0,0,.68-.73l.15-.16c.05-.06.07-.11.12-.17s.26-.37.37-.56.12-.16.16-.24a.67.67,0,0,0,.06-.12c.09-.17.16-.34.24-.5s.1-.2.13-.3a.38.38,0,0,0,0-.1,4.34,4.34,0,0,0,.14-.48c0-.11.07-.22.1-.33a.28.28,0,0,1,0-.09,4.4,4.4,0,0,0,.05-.51c0-.11,0-.22,0-.33v-.14l0-12.4C230.8,84.65,230.77,84.8,230.76,85Z"/><path class="cls-2" d="M226,77.82c6.33,3.66,6.36,9.59.08,13.24L157.7,130.81c-6.28,3.65-16.52,3.65-22.85,0s-6.37-9.59-.08-13.24l57-33.13-45.91-26.5-57,33.12c-6.28,3.65-16.52,3.65-22.85,0L4.8,55.73c-6.32-3.66-6.36-9.59-.07-13.24L73.13,2.74C79.42-.91,89.66-.91,96,2.74s6.37,9.59.09,13.24l-57,33.13L77.32,71.19l57-33.12c6.28-3.66,16.52-3.66,22.86,0ZM59.43,79.38l9.16-5.33c1.66-1,1.65-2.54,0-3.51L40.22,54.18a6.71,6.71,0,0,0-6,0L25,59.51c-1.65,1-1.64,2.54,0,3.5L53.36,79.37a6.73,6.73,0,0,0,6.07,0Zm127.68-5.52,9.16-5.32c1.66-1,1.64-2.55,0-3.52L167.89,48.66a6.68,6.68,0,0,0-6,0L152.68,54c-1.66,1-1.64,2.55,0,3.51l28.35,16.36a6.7,6.7,0,0,0,6.06,0Z"/><path class="cls-1" d="M104.38,68.45c4.23,2.43,11.06,2.43,15.25,0s4.18-6.4,0-8.84a16.82,16.82,0,0,0-15.26,0c-4.19,2.44-4.17,6.4,0,8.84Z"/><path class="cls-1" d="M77,13.79a16.8,16.8,0,0,0,15.25,0c4.19-2.44,4.17-6.4,0-8.84S81.12,2.51,76.93,5s-4.18,6.4,0,8.84"/><path class="cls-1" d="M10.79,52.36a16.8,16.8,0,0,0,15.25,0c4.19-2.44,4.17-6.4-.05-8.84s-11.06-2.44-15.25,0-4.18,6.4,0,8.84Z"/><path class="cls-1" d="M138.62,128.61c4.23,2.44,11.06,2.44,15.25,0s4.18-6.39-.05-8.83a16.8,16.8,0,0,0-15.25,0c-4.19,2.44-4.17,6.39.05,8.83"/><path class="cls-1" d="M207,88.87c4.23,2.44,11.06,2.44,15.25,0s4.18-6.4,0-8.84A16.82,16.82,0,0,0,207,80c-4.19,2.44-4.17,6.4,0,8.84"/></g></g></g></svg>