<svg xmlns="http://www.w3.org/2000/svg" viewBox="0 0 359.59 363.63"><defs><style>.cls-1{fill:#f2f2f2;}.cls-2{fill:#ddb950;}</style></defs><title>Text</title><g id="Layer_2" data-name="Layer 2"><g id="Text"><path class="cls-1" d="M0,43H13.67c1.4,7.16,5.3,10.32,13.86,10.32,6.32,0,9.95-2.79,9.95-7.53,0-4.56-6.42-5.77-14.42-7.44C13,36.08,1.49,32.55,1.49,20.09,1.49,8.28,11.72,0,26,0c15.62,0,24.64,7.91,26,21.11H38.41C37.39,14.23,33.67,11,25.85,11c-5.85,0-9.39,2.79-9.39,7.35,0,5.12,7.16,6.05,15.25,7.72,10,2.05,20.74,5.3,20.74,18,0,12.28-9.3,20.18-24.55,20.18C10.79,64.17,1.67,55.43,0,43Z"/><path class="cls-1" d="M56.1,51.52c0-9.85,7.81-12.09,17.11-14,7.62-1.58,12-1.86,12.27-4.28V33c0-2.7-2.13-4.65-7.06-4.65s-7.54,2.51-7.82,6v.75H57.12C57.3,24.92,65.3,18.23,78.6,18.23s20.56,5.39,20.56,18V63.06H85.39V57c-2.6,4.46-7.53,7.25-14.23,7.25C62,64.26,56.1,59.24,56.1,51.52Zm29.38-5.39V41.76c-2.13,1.11-5.3,1.77-8.27,2.51-3.91,1.12-7,2.42-7,6.14,0,2.69,2,4.55,5.49,4.55C80.28,55,85,52.64,85.48,46.13Z"/><path class="cls-1" d="M124,47.71l8.74-28.55h12.83L129.36,63.24H116.53L99.79,19.16h14.69Z"/><path class="cls-1" d="M170.88,47.71l8.74-28.55h12.83L176.27,63.24H163.43L146.69,19.16h14.7Z"/><path class="cls-1" d="M191.63,51.52c0-9.85,7.81-12.09,17.11-14,7.63-1.58,12-1.86,12.28-4.28V33c0-2.7-2.14-4.65-7.07-4.65s-7.53,2.51-7.81,6v.75H192.65c.19-10.24,8.19-16.93,21.49-16.93s20.55,5.39,20.55,18V63.06H220.93V57c-2.61,4.46-7.54,7.25-14.23,7.25C197.49,64.26,191.63,59.24,191.63,51.52ZM221,46.13V41.76c-2.14,1.11-5.3,1.77-8.28,2.51-3.9,1.12-7,2.42-7,6.14,0,2.69,1.95,4.55,5.48,4.55C215.81,55,220.55,52.64,221,46.13Z"/><path class="cls-1" d="M238.59,55.89l8.65-6.69a15.73,15.73,0,0,0,11.81,5.58c3.62,0,5.86-1.4,5.86-3.91,0-2.69-4.38-3.35-10.23-4.65-7.35-1.58-15.44-4.65-15.44-13.67,0-8.37,7.81-14.51,18.23-14.51,9.3,0,16,3.44,20.46,8.65,0,.19-8.37,6.33-8.37,6.33a15.22,15.22,0,0,0-11.35-5.4c-3.53,0-5.67,1.4-5.67,3.72,0,2.7,2.51,3.16,9.2,4.56,7.54,1.49,16.56,4.37,16.56,13.67,0,8.65-7.91,14.88-18.6,14.88C250.12,64.45,243.24,60.92,238.59,55.89Z"/><path class="cls-1" d="M44.64,132.9V94.3H57.38v61.76H43.15L15.62,113.55v42.51H2.88V94.3H19.53Z"/><path class="cls-1" d="M79.91,106.49H65.41V94.4h14.5Zm-.18,49.57H65.59v-43.9H79.73Z"/><path class="cls-1" d="M84.62,134c0-13.57,9.21-22.78,23.25-22.78,11.81,0,18.13,5.58,21,14.51l-13,3.44c-1-4.19-3-7.44-7.91-7.44-5.67,0-9,4.65-9,12.09v.56c0,7.53,3.07,12.09,8.74,12.09,5.3,0,7.63-3,8.56-7.91l13,3.07C126.56,151,120.05,157,107.68,157,93.17,157,84.62,148.06,84.62,134Z"/><path class="cls-1" d="M147.42,119.51c2.33-5.31,6.6-8.28,12.93-8.28,9.58,0,15.34,6.32,15.34,18.41v26.42H161.56V130.57c0-5.39-2-8.18-6.7-8.18s-7.44,3.72-7.44,10.6v23.07H133.47V93.65h13.95Z"/><path class="cls-1" d="M180.21,134.2c0-13.76,9.3-23,23.72-23s23.62,9.21,23.62,23c0,13.58-9.39,22.79-23.9,22.79S180.21,147.87,180.21,134.2Zm32.93.37v-.65c0-8.09-3.35-12.46-9.31-12.46s-9.2,4.37-9.2,12.46v.65c0,8,3.25,12.19,9.11,12.19S213.14,142.48,213.14,134.57Z"/><path class="cls-1" d="M246.89,156.06H232.76V93.65h14.13Z"/><path class="cls-1" d="M252.15,144.52c0-9.85,7.81-12.09,17.11-14,7.63-1.58,12-1.86,12.28-4.28V126c0-2.7-2.14-4.65-7.07-4.65s-7.54,2.51-7.81,6v.75H253.17c.19-10.24,8.18-16.93,21.48-16.93s20.56,5.39,20.56,18v26.79H281.44V150c-2.6,4.46-7.53,7.25-14.23,7.25C258,157.26,252.15,152.24,252.15,144.52Zm29.39-5.39v-4.37c-2.14,1.11-5.31,1.77-8.28,2.51-3.91,1.12-7,2.42-7,6.14,0,2.69,2,4.55,5.49,4.55C276.33,148,281.07,145.64,281.54,139.13Z"/><path class="cls-1" d="M299.1,148.89l8.65-6.69a15.73,15.73,0,0,0,11.81,5.58c3.63,0,5.86-1.4,5.86-3.91,0-2.69-4.37-3.35-10.23-4.65-7.35-1.58-15.44-4.65-15.44-13.67,0-8.37,7.82-14.51,18.23-14.51,9.3,0,16,3.44,20.46,8.65,0,.19-8.37,6.33-8.37,6.33a15.18,15.18,0,0,0-11.34-5.4c-3.54,0-5.68,1.4-5.68,3.72,0,2.7,2.51,3.16,9.21,4.56,7.53,1.49,16.55,4.37,16.55,13.67,0,8.65-7.9,14.88-18.6,14.88C310.63,157.45,303.75,153.92,299.1,148.89Z"/><path class="cls-1" d="M359.59,156.06H344.43V141h15.16Z"/><path class="cls-2" d="M0,229H13.67c1.4,7.16,5.3,10.32,13.86,10.32,6.32,0,9.95-2.79,9.95-7.53,0-4.56-6.42-5.77-14.42-7.44-10-2.24-21.57-5.77-21.57-18.23C1.49,194.28,11.72,186,26,186c15.62,0,24.64,7.91,26,21.11H38.41c-1-6.88-4.74-10.14-12.56-10.14-5.85,0-9.39,2.79-9.39,7.35,0,5.12,7.16,6.05,15.25,7.72,10,2.05,20.74,5.3,20.74,18,0,12.28-9.3,20.18-24.55,20.18C10.79,250.17,1.67,241.43,0,229Z"/><path class="cls-2" d="M55.43,227.2c0-13.76,9.3-23,23.71-23s23.62,9.21,23.62,23c0,13.58-9.39,22.79-23.9,22.79S55.43,240.87,55.43,227.2Zm32.92.37v-.65c0-8.09-3.35-12.46-9.3-12.46s-9.21,4.37-9.21,12.46v.65c0,8,3.26,12.19,9.12,12.19S88.35,235.48,88.35,227.57Z"/><path class="cls-2" d="M109.46,215.48H103V205.16h6.42v-2.79c0-10.88,3.07-15,12.83-15.81h9.58v10.88H129c-5.21,0-6.32.28-6.14,6.51l.09,1.21h8.28v10.32h-8v33.58H109.46Z"/><path class="cls-2" d="M149.91,249.06c-9.11-.66-10.88-4.84-11.07-12.65v-21.3H133v-10h5.85V196.6l13.86-6.79v15.35h7.91v10h-8v20.74c0,2,.93,2.79,2.88,2.88h4.84v10.33Z"/><path class="cls-2" d="M183,230.64l7.53-25.48h12.37l7.35,25.48,6.79-25.48h12.65l-14,43.9H203.57l-7.81-27.63L188,249.06H175.67l-13.76-43.9h14.32Z"/><path class="cls-2" d="M227.57,237.52c0-9.85,7.81-12.09,17.11-14,7.62-1.58,12-1.86,12.27-4.28V219c0-2.7-2.13-4.65-7.06-4.65s-7.54,2.51-7.82,6v.75H228.59c.18-10.24,8.18-16.93,21.48-16.93s20.56,5.39,20.56,18v26.79H256.86V243c-2.6,4.46-7.53,7.25-14.23,7.25C233.42,250.26,227.57,245.24,227.57,237.52ZM257,232.13v-4.37c-2.13,1.11-5.3,1.77-8.27,2.51-3.91,1.11-7,2.42-7,6.14,0,2.69,2,4.55,5.49,4.55C251.75,241,256.49,238.64,257,232.13Z"/><path class="cls-2" d="M290.34,212.79c1.4-4.84,4.84-7.91,12.37-7.91h1v12.74h-5.21c-6.51,0-8.18,2.88-8.18,9.49v21.95H276.11v-43.9h14.23Z"/><path class="cls-2" d="M303.73,227.39c0-13.86,9.12-23.16,22.88-23.16,14,0,22.23,8.74,22.23,23.25v3.44H317.31c.65,6,4.46,9,10.14,9s8.46-2.79,9.76-6.42L348.65,237c-3,8-9.48,13-21.76,13C312.47,250,303.73,241.24,303.73,227.39Zm13.58-4.65H335c-.37-5.86-3.16-8.75-8.56-8.75C321.5,214,318,217.16,317.31,222.74Z"/><path class="cls-2" d="M37.67,316.29H17.58v14.14H50v11.63H2.88V280.3H49.2v11.44H17.58v13H37.67Z"/><path class="cls-2" d="M69,305.13C71.33,300,75.7,297,82,297c9.67,0,15.34,6.51,15.34,18.6v26.42H83.23V316.57c0-5.39-2-8.18-6.69-8.18-4.56,0-7.44,3.72-7.44,10.6v23.07H55v-43.9H69Z"/><path class="cls-2" d="M114.57,329.22c-1.95.19-3.25,1.12-3.25,2.33,0,1.48,2,2.51,5.11,2.51h11.44c13.49,0,20.74,4.93,20.74,13.95,0,10-8.93,15.62-25.2,15.62-15.81,0-23.81-4.18-23.81-12.09,0-4.28,2.79-7.44,7.9-9.3-4.27-1.11-6.78-3.9-6.78-7.62s2.79-6.7,7.71-8.28a14.92,14.92,0,0,1-6.6-12.56c0-9.58,8.65-16.64,20.56-16.64,7.44,0,13.48,2.88,16.83,7.53,1.58-4.09,4.56-6.51,9-6.51v12.27a6.42,6.42,0,0,0-6.42.56,11.6,11.6,0,0,1,.28,2.61c0,10.13-7.9,16.55-20.27,16.55A25.92,25.92,0,0,1,114.57,329.22Zm3.26,16.28c-4.28.37-7.16,2-7.16,4.93,0,3.07,4.28,4.83,13,4.83s13.39-1.86,13.39-5.11-3.07-4.65-10.7-4.65Zm11.81-31.62v-.47c0-4.37-3.07-7.35-7.53-7.35a7.11,7.11,0,0,0-7.44,7.35V314c0,4.37,2.88,7.16,7.44,7.16S129.64,318.43,129.64,313.88Z"/><path class="cls-2" d="M165.72,292.49H151.21v-12.1h14.51Zm-.18,49.57H151.4v-43.9h14.14Z"/><path class="cls-2" d="M185.81,305.13c2.32-5.11,6.7-8.09,13-8.09,9.67,0,15.34,6.51,15.34,18.6v26.42H200V316.57c0-5.39-1.95-8.18-6.7-8.18-4.55,0-7.44,3.72-7.44,10.6v23.07H171.77v-43.9h14Z"/><path class="cls-2" d="M217.71,320.39c0-13.86,9.11-23.16,22.88-23.16,14,0,22.22,8.74,22.22,23.25v3.44H231.29c.65,5.95,4.46,9,10.13,9s8.47-2.79,9.77-6.42L262.63,330c-3,8-9.49,13-21.76,13C226.45,343,217.71,334.24,217.71,320.39Zm13.58-4.65H249c-.38-5.86-3.17-8.75-8.56-8.75C235.47,307,231.94,310.16,231.29,315.74Z"/><path class="cls-2" d="M265,320.39c0-13.86,9.12-23.16,22.88-23.16,14,0,22.23,8.74,22.23,23.25v3.44H278.62c.65,5.95,4.47,9,10.14,9s8.46-2.79,9.76-6.42L310,330c-3,8-9.48,13-21.76,13C273.79,343,265,334.24,265,320.39Zm13.58-4.65h17.67c-.37-5.86-3.16-8.75-8.55-8.75C282.81,307,279.27,310.16,278.62,315.74Z"/><path class="cls-2" d="M328.38,305.79c1.39-4.84,4.83-7.91,12.37-7.91h1v12.74h-5.21c-6.51,0-8.18,2.88-8.18,9.49v21.95H314.15v-43.9h14.23Z"/><path class="cls-2" d="M352.83,342.06H337.67V327h15.16Z"/></g></g></svg>